<?xml version="1.0" encoding="utf-8"?>
<!-- Generator: Adobe Illustrator 24.1.0, SVG Export Plug-In . SVG Version: 6.00 Build 0)  -->
<svg version="1.1" id="Layer_1" xmlns="http://www.w3.org/2000/svg" xmlns:xlink="http://www.w3.org/1999/xlink" x="0px" y="0px"
	 viewBox="0 0 350.7 59.3" style="enable-background:new 0 0 350.7 59.3;" xml:space="preserve">
<style type="text/css">
	.st0{fill:#FFFFFF;}
	.st1{fill-rule:evenodd;clip-rule:evenodd;fill:#336195;}
	.st2{fill:#A4C7E2;}
	.st3{fill-rule:evenodd;clip-rule:evenodd;fill:#232C67;}
</style>
<g>
	<g>
		<path class="st0" d="M25,38.4v5.8c0,0.2-0.1,0.4-0.3,0.4H8.1c-0.3,0-0.6-0.5-0.3-0.7l0.7-0.8V15.5l-0.7-0.8
			c-0.3-0.2-0.1-0.6,0.3-0.6H15c0.4,0,0.5,0.3,0.3,0.6l-0.8,0.8v23.2h9l0.8-0.7C24.5,37.8,25,38,25,38.4z"/>
		<path class="st0" d="M34.6,44.5c-0.3,0-0.6-0.5-0.3-0.7l0.7-0.8V15.5l-0.7-0.8c-0.3-0.2-0.1-0.6,0.3-0.6h17.2
			c0.2,0,0.4,0.2,0.4,0.3v5.8c0,0.3-0.4,0.7-0.7,0.3l-0.7-0.7h-9.7v6.3h6.8l0.7-0.8c0.3-0.1,0.7-0.1,0.7,0.3v6.6
			c0,0.3-0.4,0.5-0.7,0.3l-0.7-0.6h-6.8v6.8h9.7l0.7-0.7c0.2-0.3,0.7-0.1,0.7,0.3v5.7c0,0.2-0.2,0.4-0.4,0.4H34.6z"/>
		<path class="st0" d="M61.6,20.2v-5.8c0-0.2,0.2-0.3,0.5-0.3h20.6c0.3,0,0.5,0.2,0.5,0.3v5.8c0,0.3-0.5,0.6-0.7,0.3l-0.8-0.7h-6.3
			v23.3l0.7,0.8c0.3,0.2,0.1,0.7-0.3,0.7h-6.9c-0.3,0-0.5-0.5-0.3-0.7l0.7-0.8V19.8H63l-0.7,0.7C62.1,20.8,61.6,20.5,61.6,20.2z"/>
		<path class="st0" d="M89.5,14h4.2c0.3,0,0.4,0.2,0.4,0.4c0,0.1,0,0.3,0,0.3l-3,4.1C91,19,90.9,19,90.7,19h-2.1
			c-0.1,0-0.3-0.1-0.3-0.2c-0.1-0.1-0.1-0.3-0.1-0.3l0.9-4.2C89.1,14.2,89.2,14,89.5,14z"/>
		<path class="st0" d="M95.6,22.1c0.1-2.5,1.2-4.6,3.2-6.2c2-1.5,4.6-2.3,7.8-2.3c2.7,0,4.8,0.7,6.5,2.1c0.7,0.6,1.2,1.3,1.8,2.1
			c0.5,0.8,0.9,1.5,1.1,2c0.1,0.1,0.1,0.3-0.2,0.5l-5,3.3c-0.2,0.3-0.8-0.1-0.6-0.4l0.2-1c-0.2-0.3-1.3-2-3.6-2.4
			c-0.3-0.1-0.5-0.1-0.8-0.1c-0.9,0-1.7,0.2-2.4,0.6c-0.5,0.4-1,0.8-1,1.3c-0.1,0.7,0.1,1.2,0.9,1.8c0.9,0.6,2.5,1.3,5.1,2.4
			c3.3,1.4,5.5,2.9,6.9,4.6c1.2,1.4,1.7,2.8,1.6,4.7c-0.1,1.3-0.3,3.9-1.8,6.1c-1.8,2.5-4.6,3.8-8.5,3.8c-2.1,0-3.9-0.3-5.4-1
			c-1.3-0.6-2.4-1.2-3.2-2.2c-1.3-1.3-1.7-2.5-1.9-3.1c-0.1-0.2,0-0.3,0.2-0.4l5.2-4.1c0.3-0.1,0.6-0.1,0.6,0.4l-0.2,1.3
			c0.5,0.9,1,1.6,2,2.1c0.8,0.5,1.7,0.8,2.5,0.8c1,0,1.9-0.2,2.5-0.6c0.6-0.5,1-1.2,1.1-2.1c0.1-0.9-0.3-1.6-1.1-2.3
			c-0.9-0.8-2.3-1.4-4.3-2.3c-2.5-1-4.5-2-5.9-3.2C96.6,26.5,95.6,24.5,95.6,22.1z"/>
		<path class="st0" d="M202.3,20.2v-5.8c0-0.2,0.2-0.3,0.5-0.3h20.6c0.3,0,0.5,0.2,0.5,0.3v5.8c0,0.3-0.5,0.6-0.7,0.3l-0.8-0.7h-6.3
			v23.3l0.7,0.8c0.3,0.2,0.1,0.7-0.3,0.7h-6.9c-0.3,0-0.5-0.5-0.3-0.7l0.7-0.8V19.8h-6.3l-0.7,0.7C202.9,20.8,202.3,20.5,202.3,20.2
			z"/>
		<path class="st0" d="M233.9,44.5c-0.3,0-0.6-0.5-0.3-0.7l0.7-0.8V15.5l-0.7-0.8c-0.3-0.2-0.1-0.6,0.3-0.6h17.2
			c0.2,0,0.4,0.2,0.4,0.3v5.8c0,0.3-0.4,0.7-0.7,0.3l-0.7-0.7h-9.7v6.3h6.8l0.7-0.8c0.3-0.1,0.7-0.1,0.7,0.3v6.6
			c0,0.3-0.4,0.5-0.7,0.3l-0.7-0.6h-6.8v6.8h9.7l0.7-0.7c0.2-0.3,0.7-0.1,0.7,0.3v5.7c0,0.2-0.2,0.4-0.4,0.4H233.9z"/>
		<path class="st0" d="M260.9,43.8l0.7-0.8l7-14.9l-6.5-12.7l-0.7-0.8c-0.2-0.2-0.1-0.6,0.4-0.6h7c0.3,0,0.7,0.4,0.3,0.6l-0.7,0.8
			l4,7.1l4-7.1l-0.7-0.8c-0.2-0.2-0.1-0.6,0.3-0.6h7.1c0.4,0,0.6,0.3,0.4,0.6l-0.8,0.8l-6.5,12.7l7,14.9l0.8,0.8
			c0.2,0.2,0.1,0.7-0.2,0.7h-7.2c-0.4,0-0.6-0.5-0.4-0.7l0.8-0.7l-4.4-9.2l-0.2-0.4l-0.3,0.4l-4.4,9.2l0.7,0.7
			c0.2,0.2,0.1,0.7-0.4,0.7h-7C260.8,44.5,260.6,44.1,260.9,43.8z"/>
		<path class="st0" d="M290.8,43.8l0.7-0.8l7.6-27.7l-0.5-0.8c-0.2-0.3-0.1-0.6,0.4-0.6h7.4c0.4,0,0.5,0.3,0.4,0.6l-0.5,0.8
			l7.6,27.7l0.8,0.8c0.1,0.2,0.1,0.7-0.4,0.7h-7.1c-0.3,0-0.5-0.4-0.2-0.7l0.7-0.7l-1.5-5.4h-6.9l-1.5,5.4l0.7,0.7
			c0.1,0.2,0.1,0.7-0.4,0.7h-7C290.7,44.5,290.5,44.1,290.8,43.8z M305,32.1l-2.2-8l-2.1,8H305z"/>
		<path class="st0" d="M321.9,22.1c0.1-2.5,1.2-4.6,3.2-6.2c2-1.5,4.6-2.3,7.8-2.3c2.7,0,4.8,0.7,6.5,2.1c0.7,0.6,1.2,1.3,1.8,2.1
			c0.5,0.8,0.9,1.5,1.1,2c0.1,0.1,0.1,0.3-0.2,0.5l-5,3.3c-0.2,0.3-0.8-0.1-0.6-0.4l0.2-1c-0.2-0.3-1.3-2-3.6-2.4
			c-0.3-0.1-0.5-0.1-0.8-0.1c-0.9,0-1.7,0.2-2.4,0.6c-0.5,0.4-1,0.8-1,1.3c-0.1,0.7,0.1,1.2,0.9,1.8c0.9,0.6,2.5,1.3,5.1,2.4
			c3.3,1.4,5.5,2.9,6.9,4.6c1.2,1.4,1.7,2.8,1.6,4.7c-0.1,1.3-0.3,3.9-1.8,6.1c-1.8,2.5-4.6,3.8-8.5,3.8c-2.1,0-3.9-0.3-5.4-1
			c-1.3-0.6-2.4-1.2-3.2-2.2c-1.3-1.3-1.7-2.5-1.9-3.1c-0.1-0.2,0-0.3,0.2-0.4l5.2-4.1c0.3-0.1,0.6-0.1,0.6,0.4l-0.2,1.3
			c0.5,0.9,1,1.6,2,2.1c0.8,0.5,1.7,0.8,2.5,0.8c1,0,1.9-0.2,2.5-0.6c0.6-0.5,1-1.2,1.1-2.1c0.1-0.9-0.3-1.6-1.1-2.3
			c-0.9-0.8-2.3-1.4-4.3-2.3c-2.5-1-4.5-2-5.9-3.2C322.8,26.5,321.8,24.5,321.9,22.1z"/>
		<g>
			<path class="st1" d="M191.2,29.7L191.2,29.7L191.2,29.7c0-20.8-5.4-27.8-30.6-27.8v0c0,0,0,0,0,0c0,0,0,0,0,0l0,0
				c-25.2,0-30.6,7.1-30.6,27.8h0v0v0h0c0,20.8,5.4,27.8,30.6,27.8v0c0,0,0,0,0,0c0,0,0,0,0,0v0C185.8,57.5,191.2,50.4,191.2,29.7
				L191.2,29.7L191.2,29.7z"/>
			<path class="st2" d="M180.9,29.8c-0.1-0.1-0.1-0.2-0.1-0.3c-0.1-0.2-0.1-0.4-0.2-0.6c0-0.1-0.1-0.1-0.1-0.2
				c-0.1-0.1-0.1-0.3-0.1-0.4c0-0.4-0.2-0.8-0.5-1c-0.2-0.2-0.3-0.4-0.3-0.6c0-1.7,0-3.3,0-5c0-0.4-0.2-0.6-0.6-0.7
				c-0.4-0.1-0.9,0-1.2-0.3c0,0,0,0,0,0c-0.5-0.1-0.9-0.4-1.3-0.7c-0.4-0.3-0.8-0.5-1.3-0.2c-0.2,0.1-0.3,0.1-0.5,0
				c-0.2,0-0.3,0-0.5,0c-0.2,0-0.4,0.2-0.6,0.2c-0.3,0-0.5,0-0.8,0.2c-0.1,0.1-0.3,0.1-0.4,0.2c-0.2,0.1-0.4,0.1-0.6-0.1
				c-0.2-0.2-0.5-0.4-0.8-0.3c-0.1,0-0.2-0.1-0.3-0.1c-0.2,0-0.3-0.2-0.4-0.1c-0.3,0.1-0.6,0.2-0.9,0.2c-0.3,0-0.6,0-0.9-0.2
				c-0.1,0-0.1-0.1-0.2-0.1c-0.1,0-0.3,0-0.4,0c-0.2,0.1-0.4,0.1-0.5,0c-0.1-0.1-0.2-0.2-0.2-0.3c-0.1-0.2-0.2-0.3-0.4-0.3
				c-0.3,0-0.6,0-0.8,0c-0.2,0-0.4,0.1-0.6,0c-0.2-0.1-0.4,0-0.5-0.1c-0.1,0-0.2,0-0.3,0c-0.2,0-0.4-0.1-0.5-0.2
				c-0.1,0-0.2-0.1-0.3-0.2c-0.1-0.1-0.2-0.3-0.2-0.4c-0.2-0.3-0.5-0.4-0.8-0.3c-0.4,0.1-0.7,0.1-0.9-0.1c0,0-0.1-0.1-0.1-0.1
				c-0.2-0.2-0.3-0.4-0.3-0.7c0-1,0-2,0-3c0-1,0-2,0-3c0-0.6,0-0.6-0.6-0.6c-0.2,0-0.6,0-0.8,0c-2.7,0-5.6,0-8.3,0
				c-0.4,0-0.5,0.3-0.5,0.7c0,0.7,0,1.4,0,2c0,1.8,0,3.7,0,5.5c0,2.7,0,5.3,0,8c0,0.3,0,0.5-0.3,0.5c-1.7,0-3.3,0-5,0
				c-0.6,0-1.1,0-1.7,0c-1.1,0-2.3,0-3.4,0c-0.5,0-0.5,0-0.5,0.3c0,0.1,0,0.2,0,0.3c0,0.3,0.2,0.4,0.4,0.7c0.2,0.2,0.5,0.4,0.6,0.6
				c0,0,0,0,0,0.1c0.1,0.3,0.3,0.5,0.6,0.7c0.3,0.2,0.5,0.4,0.7,0.5c0.2,0.1,0.3,0.3,0.5,0.4c0.2,0.1,0.3,0.3,0.4,0.4
				c0.3,0.4,0.7,0.8,1.2,1c0.4,0.2,0.7,0.5,0.8,0.9c0.1,0.2,0.2,0.5,0.3,0.7c0.1,0.2,0.2,0.4,0.2,0.5c0,0.5,0.1,0.9,0.3,1.3
				c0,0,0.1,0.1,0.1,0.1c0.1,0.5,0.5,0.8,0.9,1.1c0.1,0.1,0.2,0.1,0.3,0.2c0.2,0.3,0.4,0.4,0.7,0.5c0.3,0.1,0.6,0.3,0.8,0.4
				c0.2,0.1,0.5,0.2,0.7,0.4c0.2,0.1,0.4,0.3,0.7,0.4c0.5,0.2,0.8,0.1,1.1-0.3c0.1-0.1,0.2-0.2,0.3-0.2c0.1-0.2,0.4-0.3,0.4-0.5
				c0-0.3,0.1-0.6,0.2-0.9c0.1-0.4,0.2-0.8,0.7-0.8c0.3,0,0.6-0.4,1-0.1c0,0,0,0,0,0c0.3,0,0.6,0,0.8,0c0.3,0,0.6,0,0.9,0.1
				c0.1,0,0.2,0.1,0.3,0.2c0,0,0.1,0.1,0.1,0.1c0.4,0.3,0.8,0.7,1.1,1c0.4,0.3,0.8,0.7,0.9,1.3c0,0.1,0.1,0.3,0.1,0.4
				c0.2,0.4,0.4,0.9,0.7,1.3c0,0,0,0.1,0,0.1c0.2,0.5,0.3,1,0.7,1.3c0.3,0.2,0.6,0.5,0.7,0.9c0.2,0.5,0.5,0.8,0.9,1.1
				c0.1,0,0.1,0.1,0.2,0.1c0.1,0.1,0.2,0.2,0.2,0.3c0,0.3-0.1,0.7,0.2,1c0.1,0.1,0.1,0.2,0.1,0.3c-0.1,0.3,0.1,0.6,0.3,0.8
				c0.2,0.3,0.4,0.6,0.5,0.9c0.1,0.3,0.2,0.7,0.4,1c0.1,0.1,0.2,0.2,0.4,0.3c0.1,0,0.1,0.1,0.2,0.1c0.3,0.2,0.7,0.4,1,0.5
				c0.3,0.1,0.6,0.3,0.9,0.5c0.3,0.2,0.7,0.3,1,0.3c0.6-0.1,1,0.1,1.4,0.5c0.3,0.3,0.6,0.4,1,0.1c0.1-0.1,0.2-0.2,0.3-0.2
				c0.4-0.1,0.5-0.4,0.5-0.7c0-0.5-0.1-1.1-0.2-1.6c-0.1-0.7-0.5-1.3-0.4-2.1c0-0.4,0-0.8,0.1-1.1c0.1-0.4,0.4-0.8,0.6-1.3
				c0.1-0.1,0.2-0.2,0.2-0.4c0.3-0.5,0.6-0.9,1.1-1.2c0.3-0.3,0.7-0.5,1-0.8c0.3-0.2,0.6-0.4,0.9-0.6c0.5-0.3,0.9-0.5,1.4-0.8
				c0.4-0.2,0.8-0.5,1.1-0.8c0.3-0.2,0.6-0.5,0.9-0.8c0.3-0.2,0.5-0.5,0.8-0.8c0.1-0.1,0.2-0.2,0.4-0.2c0.2-0.1,0.3-0.2,0.5-0.3
				c0.4-0.2,0.9-0.5,1.4-0.5c0.1,0,0.2-0.1,0.3-0.1c0.2-0.2,0.2-0.4,0-0.6c-0.1-0.1-0.1-0.2,0-0.3c0.1-0.1,0.2-0.2,0.3-0.3
				c0.2-0.2,0.3-0.5,0.3-0.8c-0.1-0.7-0.1-1.3,0.2-1.9c0.2-0.4,0.3-0.9,0.3-1.3C181.2,30.3,181.2,30,180.9,29.8z"/>
			<g>
				<path class="st3" d="M161.5,17.6c0,0.1,0.1,0.1,0.1,0.1c0.3,0.2,0.6,0.2,0.9,0.1c0.3-0.1,0.6,0,0.8,0.3c0.1,0.1,0.1,0.3,0.2,0.4
					c0.1,0.1,0.2,0.1,0.3,0.2c0.2,0.1,0.3,0.1,0.5,0.2c0.1,0,0.2,0,0.3,0c0.2,0,0.4,0,0.5,0.1c0.2,0.1,0.4,0,0.6,0
					c0.3,0,0.6,0,0.8,0c0.2,0,0.3,0.1,0.4,0.3c0,0.1,0.1,0.2,0.2,0.3c0.2,0.2,0.3,0.2,0.5,0c0.1-0.1,0.3,0,0.4,0
					c0.1,0,0.1,0.1,0.2,0.1l-7.3-9.2c0.1,0.1,0.1,0.2,0.1,0.5c0,1,0,2,0,3c0,1,0,2,0,3C161.2,17.1,161.3,17.3,161.5,17.6z"/>
				<path class="st3" d="M179.4,21.2L179.4,21.2c0.1,0.1,0.1,0.3,0.1,0.5c0,1.7,0,3.3,0,5c0,0.2,0.1,0.4,0.3,0.6
					c0.3,0.3,0.4,0.6,0.5,1c0,0.2,0,0.3,0.1,0.4c0,0,0.1,0.1,0.1,0.2c0.1,0.2,0.2,0.4,0.2,0.6c0,0.1,0.1,0.3,0.1,0.3
					c0.3,0.2,0.3,0.6,0.3,0.9c0,0.5-0.1,0.9-0.3,1.3c-0.4,0.6-0.3,1.2-0.2,1.9c0,0.3-0.1,0.6-0.3,0.8c-0.1,0.1-0.2,0.2-0.3,0.3
					c-0.1,0.1-0.1,0.2,0,0.3c0.1,0.2,0.2,0.4,0,0.6c-0.1,0.1-0.2,0.1-0.3,0.1c-0.5-0.1-1,0.2-1.4,0.5c-0.2,0.1-0.3,0.2-0.5,0.3
					c-0.1,0.1-0.3,0.1-0.4,0.2c-0.3,0.2-0.5,0.5-0.8,0.8c-0.3,0.3-0.6,0.5-0.9,0.8c-0.4,0.3-0.7,0.6-1.1,0.8
					c-0.4,0.3-0.9,0.5-1.4,0.8c-0.3,0.2-0.6,0.4-0.9,0.6c-0.3,0.3-0.7,0.5-1,0.8c-0.4,0.3-0.8,0.7-1.1,1.2c-0.1,0.1-0.2,0.2-0.2,0.4
					c-0.2,0.4-0.5,0.8-0.6,1.3c-0.1,0.3-0.1,0.7-0.1,1.1c-0.1,0.7,0.3,1.4,0.4,2.1c0.1,0.5,0.2,1.1,0.2,1.6c0,0.4-0.1,0.6-0.5,0.7
					c-0.1,0-0.2,0.1-0.3,0.2c-0.4,0.3-0.7,0.2-1-0.1c-0.4-0.4-0.8-0.5-1.4-0.5c-0.4,0.1-0.7-0.1-1-0.3c-0.3-0.2-0.6-0.4-0.9-0.5
					c-0.4-0.2-0.7-0.3-1-0.5c-0.1,0-0.1,0-0.2-0.1c-0.1-0.1-0.3-0.1-0.4-0.3c-0.2-0.3-0.3-0.6-0.4-1c-0.1-0.3-0.3-0.6-0.5-0.9
					c-0.2-0.3-0.4-0.5-0.3-0.8c0-0.1,0-0.2-0.1-0.3c-0.3-0.3-0.2-0.6-0.2-1c0-0.1,0-0.2-0.2-0.3c-0.1,0-0.1-0.1-0.2-0.1
					c-0.4-0.3-0.7-0.6-0.9-1.1c-0.1-0.3-0.4-0.7-0.7-0.9c-0.4-0.3-0.6-0.8-0.7-1.3c0,0,0-0.1,0-0.1c-0.2-0.4-0.4-0.9-0.7-1.3
					c-0.1-0.1-0.1-0.2-0.1-0.4c-0.1-0.6-0.5-0.9-0.9-1.3c-0.4-0.3-0.8-0.7-1.1-1c0,0-0.1-0.1-0.1-0.1c-0.1-0.1-0.2-0.2-0.3-0.2
					c-0.3-0.1-0.6-0.1-0.9-0.1c-0.3,0-0.6,0-0.8,0c0,0,0,0,0,0c-0.4-0.3-0.7,0.1-1,0.1c-0.5,0.1-0.6,0.5-0.7,0.8
					c-0.1,0.3-0.2,0.6-0.2,0.9c0,0.2-0.3,0.3-0.4,0.5c-0.1,0.1-0.2,0.1-0.3,0.2c-0.3,0.4-0.6,0.5-1.1,0.3c-0.2-0.1-0.5-0.3-0.7-0.4
					c-0.2-0.1-0.5-0.2-0.7-0.4c-0.3-0.1-0.6-0.3-0.8-0.4c-0.3-0.1-0.5-0.3-0.7-0.5c-0.1-0.1-0.2-0.2-0.3-0.2
					c-0.4-0.3-0.8-0.6-0.9-1.1c0,0,0-0.1-0.1-0.1c-0.3-0.4-0.4-0.8-0.3-1.3c0-0.2-0.1-0.4-0.2-0.5c-0.1-0.2-0.2-0.5-0.3-0.7
					c-0.2-0.4-0.4-0.7-0.8-0.9c-0.5-0.2-0.9-0.6-1.2-1c-0.1-0.2-0.3-0.3-0.4-0.4c-0.2-0.1-0.3-0.3-0.5-0.4c-0.2-0.2-0.5-0.4-0.7-0.5
					c-0.3-0.2-0.5-0.4-0.6-0.7c0,0,0,0,0-0.1c-0.1-0.3-0.4-0.4-0.6-0.6c-0.1-0.1-0.2-0.2-0.3-0.4l0,0l23.3,29.6
					c20.2-0.5,26.4-6.3,27.5-21.6L179.4,21.2z"/>
			</g>
		</g>
	</g>
	<g>
		<g>
			<g>
				<path class="st0" d="M342.3,15c0.1-0.3,0.3-0.5,0.5-0.7c0.2-0.2,0.4-0.4,0.7-0.5c0.3-0.1,0.6-0.2,0.9-0.2c0.3,0,0.6,0.1,0.9,0.2
					c0.3,0.1,0.5,0.3,0.7,0.5c0.2,0.2,0.4,0.4,0.5,0.7c0.1,0.3,0.2,0.6,0.2,0.9c0,0.3-0.1,0.6-0.2,0.9c-0.1,0.3-0.3,0.5-0.5,0.7
					c-0.2,0.2-0.4,0.4-0.7,0.5c-0.3,0.1-0.6,0.2-0.9,0.2c-0.3,0-0.6-0.1-0.9-0.2c-0.3-0.1-0.5-0.3-0.7-0.5c-0.2-0.2-0.4-0.4-0.5-0.7
					c-0.1-0.3-0.2-0.6-0.2-0.9C342.1,15.6,342.1,15.3,342.3,15z M342.6,16.7c0.1,0.2,0.2,0.4,0.4,0.6c0.2,0.2,0.4,0.3,0.6,0.4
					c0.2,0.1,0.5,0.1,0.7,0.1c0.3,0,0.5,0,0.7-0.1c0.2-0.1,0.4-0.2,0.6-0.4c0.2-0.2,0.3-0.4,0.4-0.6c0.1-0.2,0.1-0.5,0.1-0.8
					c0-0.3,0-0.5-0.1-0.8c-0.1-0.2-0.2-0.4-0.4-0.6c-0.2-0.2-0.4-0.3-0.6-0.4c-0.2-0.1-0.5-0.1-0.7-0.1c-0.3,0-0.5,0-0.7,0.1
					c-0.2,0.1-0.4,0.2-0.6,0.4c-0.2,0.2-0.3,0.4-0.4,0.6c-0.1,0.2-0.1,0.5-0.1,0.8C342.5,16.2,342.5,16.4,342.6,16.7z M344.5,14.6
					c0.3,0,0.5,0.1,0.7,0.2c0.2,0.1,0.2,0.3,0.2,0.6c0,0.2-0.1,0.4-0.2,0.5c-0.1,0.1-0.3,0.2-0.5,0.2l0.8,1.2H345l-0.7-1.1h-0.4v1.1
					h-0.4v-2.6H344.5z M344.3,15.8c0.1,0,0.2,0,0.3,0c0.1,0,0.2,0,0.2-0.1c0.1,0,0.1-0.1,0.2-0.1c0-0.1,0.1-0.1,0.1-0.2
					c0-0.1,0-0.2-0.1-0.2c0-0.1-0.1-0.1-0.1-0.1c-0.1,0-0.1,0-0.2-0.1c-0.1,0-0.1,0-0.2,0h-0.5v0.8H344.3z"/>
			</g>
		</g>
	</g>
</g>
</svg>
