<?xml version="1.0" encoding="utf-8"?>
<!-- Generator: Adobe Illustrator 26.3.1, SVG Export Plug-In . SVG Version: 6.00 Build 0)  -->
<svg version="1.1" id="Layer_1" xmlns="http://www.w3.org/2000/svg" xmlns:xlink="http://www.w3.org/1999/xlink" x="0px" y="0px"
	 viewBox="0 0 312.73 287.67" style="enable-background:new 0 0 312.73 287.67;" xml:space="preserve">
<style type="text/css">
	.st0{clip-path:url(#SVGID_00000091699956817244767860000017482257141074011325_);fill:#FFFFFF;}
	.st1{fill:#FFFFFF;}
	.st2{clip-path:url(#SVGID_00000063609561426951956980000016988708009056553916_);fill:#FFFFFF;}
</style>
<g>
	<defs>
		<rect id="SVGID_1_" x="2.1" y="4.19" width="308.29" height="278.69"/>
	</defs>
	<clipPath id="SVGID_00000135684262959403742960000003057796682727158171_">
		<use xlink:href="#SVGID_1_"  style="overflow:visible;"/>
	</clipPath>
	<path style="clip-path:url(#SVGID_00000135684262959403742960000003057796682727158171_);fill:#FFFFFF;" d="M256.24,216.19
		c1.54-0.35,3.07,0.12,4.96,0.24c0.95,1.06,2.01,2.13,2.25,3.66c0.12,1.42-0.12,4.37-0.71,6.26c0,0-0.12,0.47-0.24,0.59
		c-0.24,0.59-0.95,1.42-1.54,2.24c-0.59,0.83-1.89,2.36-2.72,2.72c-1.3,0.59-4.25,0.95-6.03,0.71c-0.12,0-0.59-0.47-0.71-0.47
		c-0.71-0.12-1.54-0.35-1.89-0.83c-0.24-0.24,0-0.71-0.47-0.71c0.12-0.71,0-1.54,0-2.36c0.12-1.06,0.59-2.25,0.95-3.66
		c0.24-0.95,0.35-1.65,0.83-2.6l0.35-0.12c0.12-0.35,0.24-0.94,0.47-1.3c0.12-0.12,0.35-0.12,0.47-0.24
		c0.71-1.65,1.65-2.6,3.19-3.43C255.65,216.66,256,216.31,256.24,216.19 M257.77,206.15c-0.12,0-0.24-0.12-0.35,0
		c-1.54,0.12-2.13,0.59-3.07,1.06c-0.35,0.12-0.59,0-0.83,0.24c-0.35,0-0.47,0.24-0.71,0.36c-1.06,0.59-2.36,0.94-2.95,1.3
		c-0.47,0.24-0.83,0.83-1.3,1.3c-1.42,1.3-3.19,2.84-4.14,4.37c-1.3,2.01-2.48,5.08-3.43,7.21c-0.12,0.36-0.35,0.71-0.47,0.95
		c-0.24,0.59-0.35,1.18-0.59,1.89c-1.3,3.66-2.48,7.45-3.43,11.23c-0.83,2.96-1.65,5.79-1.77,8.15c-0.12,2.72,0.35,5.67,1.06,8.39
		c0.12,0.12,0.36,0.47,0.47,0.71c0.12,0.24,0.12,0.83,0.24,1.06c0.12,0.71,0.24,1.3,0.35,1.89c0.47,1.42,0.71,2.95,1.06,3.66
		c0.71,1.18,2.48,2.24,3.66,3.31c0.71,0.59,1.3,1.06,2.01,1.42c0.83,0.59,1.65,0.83,2.6,1.18c1.77,0.36,4.02,0.47,6.38,0.59
		c2.36,0.12,4.85,0.12,7.21,0c1.42-0.12,3.19-0.71,4.26-0.83c1.77-0.36,2.95-0.71,4.25-1.06c1.06-0.35,2.13-0.59,2.84-0.95
		c1.06-0.47,2.01-1.3,2.84-1.89c0.47-0.36,0.83-0.71,1.3-1.06c0.59-0.59,0.83-1.06,1.54-1.3c0,0,0.12-0.35,0.12-0.47
		c1.06-1.06,2.13-2.13,2.84-3.19c1.18-1.54,1.89-3.55,2.6-5.44c0.35-0.95,1.06-2.13,1.3-2.96c0.24-0.95,0.47-1.89,0.59-2.6
		c0.35-1.77,0-3.54-0.59-4.37c-0.59-0.71-0.95-0.83-1.77-1.3c-0.83-0.35-1.89-1.06-2.95-0.83c-1.18,0.24-2.01,2.6-2.84,4.37
		c-0.83,1.89-1.42,3.54-2.13,4.96c-0.12,0.12-0.47,0.24-0.71,0.59c-0.12,0.35-0.12,0.71-0.35,1.06c-0.12,0.12-0.36,0.12-0.47,0.24
		c-0.12,0.24-0.12,0.47-0.24,0.59c0,0.12-0.36,0.12-0.36,0.24c-0.24,0.24-0.12,0.47-0.24,0.71c-0.12,0.12-0.59,0.12-0.71,0.24
		c-0.12,0-0.24,0.24-0.35,0.36c-0.35,0.35-0.71,0.59-1.06,0.94c-0.83,0.47-1.54,0.71-2.36,1.18c-1.65,0.94-3.43,2.01-4.96,2.48
		c-0.83,0.12-1.65,0-2.6,0.12c-1.89,0.24-3.43,0.59-5.44,0.47c-2.72-0.24-4.37-1.3-5.79-2.6c-0.35-0.35-0.47-0.47-0.83-0.59
		c-0.12-0.12-0.24-0.47-0.24-0.47c-1.3-1.42-1.89-4.73-2.01-7.09c0-0.83,0-1.65,0.24-2.13c0.24-0.47,1.18-1.18,1.77-1.3
		c0.83-0.35,1.89-0.24,2.95-0.24c2.24,0,4.85,0.35,6.03,0.24c0.71-0.12,1.3-0.47,2.01-0.71c0.83-0.24,1.65-0.12,2.36-0.35
		c0.24-0.12,0.59-0.35,0.83-0.47c0.95-0.47,2.13-0.83,2.84-1.3c0.12,0,0.12-0.35,0.24-0.47c0.12-0.12,0.47-0.12,0.59-0.24
		c0.95-0.59,1.65-1.3,2.36-2.13c1.06-1.06,2.13-2.01,2.84-3.19c0.83-1.42,1.06-3.55,1.65-5.44c0.12,0,0.47-0.24,0.47-0.35
		c0.12-0.35-0.12-0.59,0-0.95c0.24-0.83,0.59-1.77,0.83-2.72c0.24-0.59,0.47-1.06,0.47-1.54c0.24-1.89,0-4.14-0.24-6.03
		c-0.12-2.01-0.24-4.02-0.83-5.44c-0.24-0.59-1.06-1.42-1.54-2.13c-0.59-0.71-0.94-1.54-1.65-1.89c-0.36-0.24-1.3-0.24-1.77-0.47
		c-0.12,0-0.24-0.35-0.47-0.47C264.86,205.67,260.25,205.79,257.77,206.15 M202.58,217.14c1.3-0.83,2.95-0.83,5.44-0.95
		c0,0,0.24-0.24,0.47-0.24c1.89,0,4.61,1.18,5.79,2.6c0.12,0.24,0,0.35,0.24,0.47c0.95,1.06,0.47,4.85,0.12,6.62
		c-0.24,1.65-0.36,2.72-0.83,4.14c-0.12,0.59-0.47,1.18-0.59,1.77c-0.47,1.42-0.59,2.84-0.95,3.9c-0.24,0.71-0.83,1.42-1.3,2.36
		c-0.35,0.83-0.47,1.65-0.83,2.48c-0.12,0.47-0.24,0.94-0.47,1.3c-0.12,0.47-0.47,0.71-0.59,1.06c-0.12,0.47-0.24,0.95-0.47,1.3
		c-0.12,0.47-0.24,1.06-0.36,1.3c-0.12,0.12-0.47,0.24-0.47,0.24c0,0.12,0.12,0.35,0,0.47c0,0-0.35,0.12-0.47,0.24
		c-0.24,0.47-0.59,0.71-1.06,1.3c-0.35,0.35-0.47,0.83-0.83,1.3c-0.59,0.59-1.42,1.18-2.13,1.89c-0.24,0.12-0.24,0.47-0.47,0.59
		c-0.12,0.12-0.47,0.12-0.59,0.24c-0.47,0.35-0.71,0.83-1.06,1.06c-0.24,0.24-0.47,0.36-0.71,0.47c-0.35,0.24-1.18,0.35-1.77,0.83
		c-1.06,1.18-3.07,0.59-4.49-0.35c-0.24-0.24-0.47-0.12-0.59-0.24c-0.35-0.24-0.35-0.71-0.71-1.3c-0.71-1.18-2.6-4.25-2.72-5.67
		c-0.35-1.77,0.47-3.55,1.06-5.55c0.47-1.89,0.95-3.54,1.42-4.96c0.59-1.42,1.3-3.07,1.77-4.73c0.59-1.77,0.83-3.66,1.54-4.96
		c0.35-0.83,1.18-1.65,1.65-2.36c0.35-0.36,0.59-0.71,0.95-1.06c0.24-0.35,0.59-0.71,0.83-1.06
		C200.58,219.97,201.28,217.85,202.58,217.14 M214.64,263.58c2.13,1.06,4.96,1.3,7.33,1.77c0.95,0.12,2.01,0.47,2.84,0.47
		c0.59-0.12,1.54-0.47,2.36-0.71c1.89-0.36,2.84-0.47,4.14-1.06c0.35-0.24,0.95-0.47,1.3-0.71c0.35-0.12,0.59-0.59,1.06-0.83
		c0.47-0.24,0.95-0.36,1.3-0.59c0.47-0.47,0.95-1.3,1.54-2.01c0.59-0.83,1.18-1.89,1.65-2.6c0.24-0.35,0.47-0.83,0.71-1.06
		c0.36-0.47,0.59-0.95,1.06-1.42c0.24-0.47,0.59-0.83,0.83-1.18c0.35-0.71,0.47-1.65,0.83-2.48c0.35-0.83,1.06-1.65,1.3-2.36
		c0.36-0.83,0.47-2.01,0.71-2.84c0.24-1.18,0.59-2.13,0.59-3.07c0-1.06-0.59-2.25-0.83-2.6c-0.24-0.12-0.24-0.47-0.47-0.59
		c-0.83-0.71-3.31-1.77-4.25-1.54c-1.42,0.35-2.01,2.48-2.6,3.9c-0.71,1.65-1.54,3.78-2.36,4.96c-1.18,1.54-2.01,2.36-3.31,3.66
		c-1.3,1.3-2.72,2.96-4.49,3.19c-2.72,0.47-4.73-0.94-5.32-2.95c-0.47-1.54-0.47-3.9-0.24-5.79c0.12-1.65,0.83-3.54,1.3-5.44
		c0.12-0.47,0.12-1.06,0.24-1.54c0.36-1.65,1.18-3.55,1.65-4.96c0.59-1.42,0.95-2.48,1.3-3.9c0.59-2.01,1.06-4.37,1.77-5.79
		c0.71-1.65,2.25-2.96,2.72-4.49c0.35-0.83,0.35-1.89,0.47-2.84c0.47-3.19,1.06-5.55,1.89-8.15c0.59-1.54,1.18-3.31,1.77-4.96
		c0.35-0.71,0.71-1.42,1.06-2.13c0.35-0.71,0.95-1.65,1.06-2.36c0.24-0.71,0.12-1.65,0.24-2.6c0-0.35,0.12-0.71,0.24-1.06
		c0.24-1.06,0.35-2.01,0.59-2.6c0.24-0.47,0.59-0.71,0.71-1.06c0.24-1.18,0.24-2.48,0-3.31c-0.95-2.48-6.15-2.36-8.16-1.42
		c-1.06,0.47-1.18,0.71-1.54,1.3c-0.35,0.59-0.59,1.06-0.95,1.65c-0.12,0.35-0.36,0.71-0.59,1.06c-0.71,1.3-1.06,2.48-1.54,3.66
		c-0.12,0.47-0.24,0.95-0.36,1.3c-0.24,0.35-0.59,0.83-0.71,1.06c-0.59,1.77-0.71,3.66-1.3,5.2c-0.59,1.77-1.3,3.31-1.65,4.73
		c-0.59,1.42-0.83,2.36-2.01,2.6c-1.3,0.35-2.84-0.35-4.26-0.83c-1.3-0.47-2.6-1.06-3.9-1.3c-2.01-0.35-6.15,0.12-7.8,0.59
		c-1.65,0.59-3.07,1.42-4.49,2.36c-2.72,1.89-4.49,3.66-6.62,6.03c-0.71,0.71-1.42,1.3-2.01,2.01c-0.12,0.12-0.12,0.47-0.24,0.59
		c-0.12,0.24-0.47,0.24-0.59,0.47c-0.83,0.83-0.95,1.65-1.54,2.6l-0.24,0.24c-0.71,0.71-0.83,1.89-1.3,2.72
		c-0.24,0.59-0.59,1.06-0.83,1.54c-0.24,0.47-0.24,1.18-0.47,1.77c-0.24,0.47-0.59,0.95-0.83,1.42c-0.24,0.71-0.24,1.42-0.47,2.01
		c-0.47,1.77-1.18,3.43-1.65,5.2c-0.35,1.18-0.59,2.48-0.83,3.66c-0.83,2.48-1.77,5.2-1.77,7.44c0,0.71,0.12,2.36,0.24,3.07
		c0,0.35,0.24,0.83,0.35,1.3c0.71,2.25,1.42,4.49,2.25,6.5c0.35,0.71,0.59,1.3,0.83,1.65c0.12,0.24,0,0.59,0.24,0.83
		c0.24,0.47,0.94,0.83,1.54,1.3c0.47,0.59,0.95,1.3,1.42,1.54c0.36,0.24,0.95,0.24,1.54,0.47c1.18,0.35,2.01,0.59,3.43,0.83
		c3.31,0.47,6.14,0.24,9.45-0.24c1.54-1.18,2.84-2.84,4.37-4.73c0.71-0.83,2.01-2.13,2.84-2.84c0.12-0.12,0.36-0.47,0.59-0.59
		c2.48-1.54,3.66,0.59,4.73,2.6C213.34,260.86,214.05,262.28,214.64,263.58 M173.28,209.1c-1.18-0.59-2.72-1.06-4.14-1.06
		c-0.83,0-3.19,0.24-3.9,0.59c-0.59,0.35-1.54,1.77-2.13,3.07c-0.59,1.18-1.06,2.6-1.54,3.66c-0.95,2.13-1.89,4.37-2.6,6.5
		c-0.12,0.24-0.36,0.59-0.36,0.83c-0.83,3.07-0.71,6.26-1.54,9.22c-0.24,0.83-0.59,1.42-0.83,2.25c-0.35,0.59-0.71,1.42-0.95,2.13
		c-0.24,0.71-0.35,1.54-0.59,2.36c-0.24,0.71-0.71,1.42-0.95,2.13c-0.35,1.54-0.47,3.55-0.59,5.44c-0.24,3.43-0.59,7.56-0.24,10.75
		c1.3,2.48,2.95,5.08,4.73,6.62c0.24,0.24,0.71,0.71,0.94,0.95c0.12,0,0.47-0.12,0.59,0c0.12,0,0.12,0.36,0.24,0.36
		c1.18,0.59,3.43,1.3,4.96,1.3c0.59,0,1.3-0.24,2.13-0.36c0.83-0.24,1.66-0.12,2.6-0.24c2.36-0.47,5.08-1.54,6.85-2.36
		c0.36-0.24,0.71-0.59,0.95-0.71c1.18-0.71,2.6-1.3,3.43-2.13c0.35-0.47,0.71-1.18,1.06-1.77c0.24-0.24,0.35-0.35,0.59-0.59
		c0.24-0.35,0.24-0.83,0.47-1.06c0.59-0.83,1.18-1.66,1.77-2.36c0.47-0.83,0.71-1.3,1.06-2.13c0.47-1.65,1.18-2.84,1.65-4.14
		c1.06-2.84,1.89-6.03,0.47-8.04c-0.12-0.12-0.24-0.47-0.47-0.59c-0.83-0.71-3.31-1.77-4.25-1.54c-1.3,0.35-1.77,2.13-2.13,3.07
		c-0.59,1.06-1.06,2.13-1.3,3.19c-0.12,0.12-0.47,0.35-0.47,0.47c-0.24,0.47-0.24,0.95-0.47,1.3c-0.59,1.06-1.77,2.01-2.36,3.19
		c0,0-0.35,0.12-0.35,0.24c-0.59,0.71-1.18,1.18-1.77,1.65c-1.77,1.77-3.43,3.55-5.44,3.66c-1.06,0.12-2.95-0.12-3.66-0.59
		c-0.95-0.83-1.89-4.26-1.89-6.03c0-0.47,0.12-1.06,0.24-1.77c0.35-2.24,1.06-3.54,1.65-5.32c0.47-1.3,0.94-2.6,1.3-3.9
		c1.3-3.78,2.36-8.39,3.54-12.29c0.83-2.96,1.3-5.79,2.36-8.15c0.47-1.42,1.18-2.6,1.42-3.9
		C173.75,211.46,173.63,210.4,173.28,209.1 M179.42,186.53c-2.13-1.3-4.61-2.25-7.09-1.54c-0.47,0.12-2.01,0.83-2.36,1.06
		c-0.35,0.36-0.83,1.06-1.3,1.54c-1.3,1.54-1.42,2.01-1.89,4.73c-0.35,1.77-0.83,3.54-0.47,5.2c0,0,0.47,0.47,0.47,0.59
		c0.12,0.35,0,0.83,0.24,1.06c0.24,0.36,1.18,1.3,1.3,1.3c0.47,0.36,1.54,0.12,2.48,0.24c1.06,0.12,2.13,0.35,2.84,0.24
		c0.12,0,0.47-0.35,0.71-0.47c1.3-0.47,1.3-0.35,2.13-1.3c0.83-0.94,1.18-1.77,1.65-2.95c0.12-0.24,0.35-0.47,0.47-0.71
		c0.12-0.35,0.12-0.71,0.24-1.06C179.54,191.85,180.37,188.77,179.42,186.53 M119.86,246.56c-0.83,0.12-1.3,1.18-1.65,1.54
		c-0.35,0.24-0.59,0.24-0.95,0.47c-2.13,1.77-5.08,5.44-8.98,4.73c-0.71-0.12-2.01-0.83-2.6-1.77c-0.83-1.18-0.59-2.96-0.59-4.49
		c-0.12-1.54-0.24-3.19,0-4.73c0-0.71,0.36-1.42,0.59-2.25c0.24-0.71,0.36-1.54,0.71-2.36c0.24-0.71,0.47-1.3,0.83-2.13
		c0.24-0.71,0.35-1.65,0.59-2.36c0.47-0.94,1.06-1.89,1.54-2.84c0.47-0.95,1.06-1.77,1.54-2.72c2.13-4.26,2.6-8.15,4.02-13.12
		c0.59-1.89,1.65-5.55,0.47-7.33c-1.42-2.48-8.27-2.36-10.16,0c-1.06,1.3-1.42,5.2-2.13,7.09c-0.35,1.06-1.18,2.48-1.54,3.19
		c-0.12,0.35,0,0.83-0.12,1.3c-0.83,2.48-1.65,4.61-2.36,7.09c-1.18,3.43-2.6,6.62-3.43,9.69c-0.24,0.83-0.35,1.65-0.71,2.36
		c-0.24,0.83-0.71,1.42-1.06,2.13c-0.24,0.83,0.24,1.65,0,2.36c-0.24,0.83-0.71,1.65-0.95,2.48c-0.71,3.19-0.59,7.21-0.12,10.28
		c0.36,2.72,0.59,4.14,1.65,5.55c1.42,2.01,3.66,3.66,6.03,4.37c2.25,0.71,4.25,0.24,7.33,0.24c3.07-0.12,5.08-0.24,6.5-0.95
		c1.89-0.83,3.31-3.07,4.73-4.73c0.71-0.71,1.42-1.65,2.36-2.36c1.06-0.71,1.77-1.42,3.9-1.06c1.42,1.18,0.47,2.95,1.06,4.37
		c0.24,0.59,1.77,1.89,2.13,2.36c0.59,0.59,1.06,1.18,1.54,1.42c0.24,0.24,0.71,0.24,1.06,0.47c0.71,0.35,1.54,0.94,2.13,1.06
		c1.3,0.24,2.84-0.12,4.37-0.24c1.42-0.12,2.84-0.12,4.02-0.36c0.47-0.12,0.95-0.59,1.3-0.71c1.3-0.47,2.13-0.59,3.07-1.06
		c0.94-0.47,1.65-0.95,2.36-1.54c0.24-0.12,0.47,0,0.59-0.12c0.24-0.24,0.35-0.59,0.47-0.71c0.35-0.24,0.83-0.35,1.06-0.59
		c0.36-0.35,0.59-0.83,0.83-1.18c1.3-1.18,2.84-2.36,3.66-3.54c0.24-0.35,0.24-0.83,0.47-1.18c0.24-0.24,0.71-0.59,0.83-0.83
		c0.47-0.83,0.71-2.01,1.18-2.95c0.35-0.95,0.95-1.89,1.18-2.84c1.18-3.07,1.89-7.33-0.35-8.63c-0.59-0.35-0.94-0.71-1.54-0.83
		c-3.31-1.18-3.9,0.59-4.73,2.36c-0.24,0.47-0.59,1.06-0.83,1.65c-0.24,0.59-0.71,2.01-0.95,2.25c-0.12,0.12-0.24,0.35-0.35,0.59
		c-0.59,0.59-1.06,1.42-1.3,1.89c0,0.12-0.35,0.24-0.47,0.24c-0.83,1.18-2.72,3.66-3.9,4.14c0,0-0.12,0.35-0.12,0.47
		c-0.71,0.47-1.54,1.06-2.25,1.18c-1.18,0.35-4.14,0-4.73-0.12c-0.83-0.35-2.13-1.89-2.36-2.6c-0.24-0.95-0.12-2.25,0-3.43
		c0.12-1.18,0.35-2.13,0.71-3.31c0.71-2.72,1.54-6.03,2.36-8.15c0.47-1.3,0.94-2.48,1.3-3.66c0-0.12,0.36-0.35,0.36-0.47
		c0.12-0.12,0-0.47,0-0.59s0.47-0.35,0.47-0.47c0.24-0.59,0.59-1.54,0.59-1.89c0.59-2.6,1.18-5.79,2.01-8.04
		c0.12-0.47,0.35-1.06,0.59-1.65c0.47-1.42,1.06-2.36,1.54-3.43c0.47-1.06,0.83-2.36,1.3-3.66c0.12-0.35,0.35-0.47,0.47-0.71
		c0.12-0.35,0.12-0.71,0.12-1.06c1.06-5.2-5.55-4.73-9.46-3.66c-4.25,4.85-4.37,11.94-7.33,18.32c-0.71,1.65-1.65,3.07-2.13,4.73
		c0,0.12-0.35,0.35-0.47,0.47c-0.47,1.3-0.71,2.6-1.06,3.9c-0.36,1.65-0.83,3.31-1.54,4.85c-0.36,0.95-0.71,1.89-1.06,2.84
		c0,0.12-0.35,0.35-0.35,0.47c-0.24,0.35-0.24,0.95-0.47,1.3c-0.36,0.59-1.06,0.95-1.54,1.54c-0.24,0.24-0.36,0.59-0.59,0.83
		C120.33,245.97,119.74,246.09,119.86,246.56 M86.06,228.48c-1.3-1.54-2.72-2.48-4.96-2.6c-1.18-0.12-2.48,0-3.66,0.24
		c-0.71,0.12-2.13,0.59-2.36,0.83c-0.59,0.59-0.95,0.83-1.3,1.54c-0.83,1.42-1.3,2.95-2.13,4.25c-1.06,1.65-3.31,3.66-4.73,4.96
		c-0.83,0.71-1.65,1.54-2.25,2.01c-0.47,0.35-1.06,0.71-1.42,1.06c-0.47,0.35-1.06,0.83-1.3,1.06c-0.24,0.12-0.47,0-0.71,0.24
		c-0.12,0-0.12,0.35-0.24,0.35c-0.12,0.12-0.47,0.12-0.59,0.24c-1.06,0.71-2.48,1.54-3.43,1.77c-2.25,0.35-5.44,0-7.21-0.24
		c-0.71-0.12-1.66-0.12-2.13-0.47c-0.83-0.47-1.65-1.89-1.89-2.6c0,0-0.35-0.12-0.47-0.12c0-0.12,0.12-0.35,0-0.47
		c0-0.12-0.35-0.12-0.35-0.24c-0.71-1.18-0.83-2.13-1.18-3.43c-1.3-6.38,0.24-14.54,2.01-20.92c0.24-0.71,0.12-1.54,0.35-2.13
		c0.12-0.24,0.35-0.59,0.47-0.83c0.71-1.65,1.54-2.96,2.36-4.37c0.71-1.18,1.18-2.48,1.77-3.66c0.24-0.59,0.71-0.95,1.06-1.54
		c0.35-0.59,0.47-1.42,0.83-1.89c0.59-0.83,1.54-1.66,2.36-2.6c2.25-2.36,4.96-4.14,8.27-5.2c0.71-0.24,1.65-0.59,2.36-0.59
		c1.42-0.24,2.96,0.12,4.02,0.24c1.3,0.12,2.6,0.12,3.43,0.83c0.71,0.47,1.89,2.48,2.01,3.19c0.24,1.18,0.12,2.96,0,3.9
		c-0.24,1.18-0.95,2.01-1.3,2.6c-0.71,1.06-0.95,1.89-1.54,2.84c-0.59,0.95-0.94,1.42-1.54,1.65c0,0-0.12,0.35-0.12,0.47
		c-0.35,0.12-0.71,0.24-0.95,0.47c-0.24,0.12-0.47,0.47-0.59,0.59c-0.35,0.12-0.83,0.12-1.06,0.24c-0.35,0.12-0.59,0.35-0.95,0.35
		c-1.18,0.47-2.01,0.47-3.19,0.71c-2.25,0.36-5.79,0.71-7.33,1.54c-1.54,0.71-2.48,2.25-3.07,4.25c-0.47,1.77-0.71,4.14,0,5.2
		c0.71,0.95,2.6,1.18,4.37,1.3c1.77,0,3.55-0.35,5.2-0.71c4.14-0.59,8.04-1.42,10.28-2.48c0.83-0.47,1.18-0.95,1.77-1.3
		c0.35-0.35,0.71-0.35,0.83-0.47c0.12-0.12,0.24-0.12,0.47-0.24c1.3-1.06,3.07-3.55,4.26-4.96c0.47-0.59,1.06-1.06,1.54-1.65
		c1.06-1.42,2.13-3.66,2.84-4.96c0.12-0.35,0.24-0.71,0.36-1.06c1.3-2.72,2.72-8.04,2.25-12.17c-0.24-1.06-0.94-3.07-1.3-4.02
		c-0.24-0.59-0.35-1.18-0.47-1.54c-0.12-0.35-0.47-0.71-0.59-1.06c-0.24-0.24-0.12-0.47-0.24-0.71c-0.12-0.12-0.59-0.24-0.71-0.35
		c-0.24-0.35-0.35-0.83-0.59-1.06c-0.12-0.12-0.59-0.12-0.71-0.24c-0.12-0.12-0.24-0.59-0.35-0.71c-0.59-0.24-1.3-0.24-2.01-0.35
		c-0.59-0.24-1.3-0.47-1.89-0.71c-1.3-0.35-2.6-1.06-3.66-1.3c-1.3-0.24-2.84-0.24-4.37-0.35c-1.65-0.24-3.31-0.35-4.73-0.24
		c-0.83,0-1.77,0.47-2.72,0.59c-1.06,0.24-2.13,0.24-3.07,0.47c-1.18,0.36-2.72,1.3-4.14,1.89c-0.94,0.47-2.13,1.06-2.95,1.54
		c-0.47,0.24-1.06,0.95-1.3,1.06c-0.24,0.12-0.47,0.12-0.71,0.24c-0.95,0.71-1.54,1.42-2.36,2.13c-1.18,1.06-2.6,1.89-3.43,2.84
		c-0.12,0.12-0.12,0.47-0.24,0.59c-0.59,1.18-1.3,2.13-1.89,3.07c-0.24,0.47-0.24,0.71-0.47,1.06c0,0.12-0.36,0.12-0.36,0.24
		c-0.47,0.83-0.83,1.77-1.3,2.6c-0.59,0.83-1.3,1.54-1.77,2.36c-0.12,0.35-0.24,0.83-0.47,1.3c-0.35,0.83-0.71,1.54-1.06,2.36
		c-0.35,0.95-0.71,1.65-1.06,2.36c-0.59,1.42-0.94,2.6-1.54,3.9c-0.59,1.65-1.18,3.55-1.66,5.32c-0.94,3.31-1.89,5.44-2.13,8.86
		c-0.35,4.85-0.12,11.46,0.83,14.89c0.24,0.83,0.47,1.65,0.59,2.13c0.95,2.48,1.65,3.55,3.07,5.44c0.94,1.18,1.77,2.36,2.84,3.19
		c0.59,0.59,1.18,1.06,1.65,1.54c0.47,0.59,1.18,1.18,1.77,1.54c0.24,0.12,0.47,0.12,0.59,0.12c0.94,0.59,1.89,0.94,3.07,1.3
		c2.01,0.71,3.43,1.06,5.79,1.18c1.18,0,2.48,0.12,3.66,0c1.3-0.24,3.07-0.95,4.14-1.18c0.59-0.12,1.18,0,1.65-0.12
		c1.06-0.47,1.65-1.3,2.36-1.77c1.42-0.94,3.19-2.24,4.96-1.89c1.18,1.89,0.12,4.14-0.59,5.32c-0.24,0.36-0.59,0.71-0.71,0.83
		c-0.35,0.71-0.47,1.42-0.83,2.01c-0.12,0.24-0.47,0.35-0.59,0.59c-0.24,0.36-0.35,0.83-0.47,1.06c-0.35,0.71-0.71,1.18-1.06,1.77
		c-0.71,1.3-1.18,2.95-2.01,3.9c-0.47,0.59-2.13,1.54-2.72,1.89c-2.36,1.54-6.03,1.54-10.4,1.3c-4.14-0.12-6.38-0.35-8.39-1.3
		c-1.42-0.59-2.25-1.42-3.66-1.89c-2.01-0.83-2.6-0.47-3.9,0.24c-0.94,0.47-1.3,1.3-1.89,2.13c-0.35,0.47-0.71,1.18-0.83,1.54
		c-1.3,1.89-1.89,4.61,0.83,5.08c0.94,1.42,2.24,2.13,3.66,2.84c0.59,0.36,1.18,0.59,1.66,0.83c1.18,0.59,2.48,1.42,3.54,1.77
		c1.42,0.47,3.31,0.47,5.08,0.71c4.49,0.36,10.05,0.47,13.83-0.24c2.36-0.47,3.43-1.3,5.2-2.36c1.77-1.18,3.31-2.36,4.73-3.66
		c0.83-0.83,1.65-1.65,1.89-2.36c0.12-0.12,0.47-0.24,0.47-0.24c0.47-0.71,0.94-2.01,1.3-2.36c0.59-0.71,1.18-1.77,1.54-2.36
		c0.71-1.77,1.18-3.78,1.89-5.67c0.12-0.35,0.47-0.71,0.71-1.06c0.35-1.06,0.71-2.01,1.06-2.84c0.12-0.47,0.24-0.95,0.35-1.42
		c0.35-0.95,0.83-1.77,1.06-2.6c0.83-2.01,1.18-4.14,1.77-6.03c0.35-0.95,0.83-1.89,1.06-2.84c0.35-1.3,0.35-2.6,0.71-3.9
		c0.12-0.59,0.24-1.18,0.35-1.65c0.24-1.06,0.24-2.13,0.47-2.6C84.76,235.45,85.47,231.79,86.06,228.48"/>
	<path style="clip-path:url(#SVGID_00000135684262959403742960000003057796682727158171_);fill:#FFFFFF;" d="M291.81,109.75
		c0.71-1.89,2.13-5.2,5.55-3.9c1.3,2.72-0.83,5.2-1.89,7.21c-0.24,0.36-0.47,1.06-0.94,1.66c-0.12,0.24-0.47,0.35-0.59,0.71
		c-0.12,0.24,0,0.59-0.24,0.83c-0.83,0.95-1.89,1.65-3.19,1.77C289.68,116.13,290.86,112.35,291.81,109.75 M296.77,91.67
		c-1.3,0.12-2.84,0.47-4.14,1.06c-1.3,0.71-3.55,3.07-4.25,4.14c-0.35,0.47-0.59,1.06-0.95,1.65c-0.47,1.06-0.83,1.77-1.3,2.84
		c-0.35,1.06-0.95,1.89-1.3,2.84c-0.12,0.59-0.12,1.42-0.36,2.13c-0.24,0.71-0.71,1.3-0.83,1.89c-0.47,1.54-0.71,2.95-1.18,4.37
		c-0.36,1.3-0.83,2.6-1.3,4.14c-0.24,1.3-0.59,2.84-1.06,4.25c-0.35,1.42-0.59,2.95-1.06,4.25c-0.36,1.42-1.3,2.6-1.65,3.9
		c-0.24,0.47-0.12,1.06-0.24,1.54c-0.12,0.47-0.36,0.83-0.47,1.3c-0.59,2.13-1.54,4.73-1.89,6.74c-0.12,0.47-0.12,0.95-0.24,1.42
		c-0.47,1.77-1.18,3.43-1.77,5.2c-0.47,1.89-1.06,3.78-1.42,5.55c-0.83,3.55-0.47,8.27,0.12,11.23c0.47,2.13,0.83,2.95,1.54,3.9
		c0.24,0.24,0.47,0.59,0.71,0.83c0.95,1.18,2.48,2.36,3.66,3.07c0.36,0.24,0.71,0.47,1.06,0.59c0.35,0.24,0.83,0.59,1.06,0.71
		c1.77,0.71,4.73,1.3,6.62,1.54c0.59,0,1.06-0.24,1.54-0.24c1.18,0,2.24,0.24,3.31,0.24c0.71-0.12,1.65-0.47,2.48-0.71
		c1.06-0.24,2.13-0.12,2.84-0.47c0.35,0,0.71-0.35,1.06-0.59c0.47-0.24,0.95-0.47,1.3-0.71c1.89-0.94,2.6-1.54,3.9-3.19
		c0.24-0.24,0.59-0.47,0.83-0.83c0.24-0.47,0.35-0.95,0.71-1.3c0.71-1.18,1.54-2.24,2.13-3.19c0.24-0.47,0.71-0.83,0.83-1.18
		c0.47-0.83,0.71-2.01,1.06-2.96c0.95-2.13,1.89-3.78,2.25-6.26c0.12-1.65-0.12-3.31-0.71-4.14c-0.59-0.71-0.83-0.83-1.65-1.3
		c-0.95-0.35-1.89-1.06-3.07-0.83c-1.3,0.35-1.77,2.13-2.13,3.07c-0.59,1.06-0.95,2.13-1.3,3.19c0,0.12-0.35,0.35-0.47,0.47
		c-0.47,1.06-0.95,2.13-1.54,2.72c-0.47,0.59-0.83,1.06-1.3,1.54c-1.77,2.25-3.66,4.25-5.79,4.96c-3.9,1.3-7.56,0.24-9.22-2.84
		c-0.83-1.42-1.42-3.31-0.83-6.14c0.12-1.3,1.06-2.72,1.65-4.37c0.47-1.42,1.06-3.07,1.54-4.73c0.95-3.31,1.42-7.33,2.84-9.45
		c0.95-1.65,2.48-2.36,4.25-3.66c0.71-0.59,1.42-1.18,2.13-1.77c0.83-0.59,1.77-1.06,2.36-1.66c0.83-0.83,1.89-2.36,2.6-3.31
		c0.71-0.83,1.06-1.42,1.54-2.36c1.54-2.48,3.31-4.73,4.26-7.56c0.59-1.54,1.18-2.84,1.54-4.25c0.24-0.59,0.35-1.3,0.47-1.89
		c0.35-1.89,0.83-4.61,0.59-6.5c-0.24-2.72-1.65-4.73-2.95-6.03c-1.18-1.18-1.54-1.42-3.07-2.01c-0.47-0.12-0.83-0.47-1.3-0.59
		C299.61,91.55,297.48,91.55,296.77,91.67 M251.86,123.1c1.54-0.35,3.07,0.12,4.96,0.24c0.95,1.06,2.01,2.13,2.24,3.66
		c0.12,1.42-0.12,4.37-0.71,6.26c0,0-0.12,0.47-0.24,0.59c-0.24,0.59-0.94,1.42-1.54,2.24c-0.59,0.83-1.89,2.36-2.72,2.72
		c-1.3,0.59-4.26,0.94-6.03,0.71c-0.12,0-0.59-0.47-0.71-0.47c-0.71-0.12-1.54-0.35-1.89-0.83c-0.24-0.24,0-0.71-0.47-0.71
		c0.12-0.71,0-1.54,0-2.36c0.12-1.06,0.59-2.25,0.95-3.66c0.24-0.94,0.35-1.65,0.83-2.6l0.35-0.12c0.12-0.35,0.24-0.94,0.47-1.3
		c0.12-0.12,0.35-0.12,0.47-0.24c0.71-1.65,1.65-2.6,3.19-3.43C251.27,123.58,251.63,123.22,251.86,123.1 M253.4,113.06
		c-0.12,0-0.24-0.12-0.35,0c-1.54,0.12-2.13,0.59-3.07,1.06c-0.35,0.12-0.59,0-0.83,0.24c-0.35,0-0.47,0.24-0.71,0.36
		c-1.06,0.59-2.36,0.94-2.95,1.3c-0.47,0.24-0.83,0.83-1.3,1.3c-1.42,1.3-3.19,2.84-4.14,4.37c-1.3,2.01-2.48,5.08-3.43,7.21
		c-0.12,0.35-0.35,0.71-0.47,0.95c-0.24,0.59-0.35,1.18-0.59,1.89c-1.3,3.66-2.48,7.45-3.43,11.23c-0.83,2.96-1.65,5.79-1.77,8.15
		c-0.12,2.72,0.35,5.67,1.06,8.39c0.12,0.12,0.36,0.47,0.47,0.71c0.12,0.24,0.12,0.83,0.24,1.06c0.12,0.71,0.24,1.3,0.36,1.89
		c0.47,1.42,0.71,2.95,1.06,3.66c0.71,1.18,2.48,2.25,3.66,3.31c0.71,0.59,1.3,1.06,2.01,1.42c0.83,0.59,1.65,0.83,2.6,1.18
		c1.77,0.35,4.02,0.47,6.38,0.59c2.36,0.12,4.85,0.12,7.21,0c1.42-0.12,3.19-0.71,4.25-0.83c1.77-0.35,2.96-0.71,4.26-1.06
		c1.06-0.35,2.13-0.59,2.84-0.95c1.06-0.47,2.01-1.3,2.84-1.89c0.47-0.36,0.83-0.71,1.3-1.06c0.59-0.59,0.83-1.06,1.54-1.3
		c0,0,0.12-0.35,0.12-0.47c1.06-1.06,2.13-2.13,2.84-3.19c1.18-1.54,1.89-3.55,2.6-5.44c0.35-0.95,1.06-2.13,1.3-2.96
		c0.24-0.94,0.47-1.89,0.59-2.6c0.35-1.77,0-3.55-0.59-4.37c-0.59-0.71-0.95-0.83-1.77-1.3c-0.83-0.35-1.89-1.06-2.95-0.83
		c-1.18,0.24-2.01,2.6-2.84,4.37c-0.83,1.89-1.42,3.55-2.13,4.96c-0.12,0.12-0.47,0.24-0.71,0.59c-0.12,0.35-0.12,0.71-0.35,1.06
		c-0.12,0.12-0.36,0.12-0.47,0.24c-0.12,0.24-0.12,0.47-0.24,0.59c0,0.12-0.36,0.12-0.36,0.24c-0.24,0.24-0.12,0.47-0.24,0.71
		c-0.12,0.12-0.59,0.12-0.71,0.24c-0.12,0-0.24,0.24-0.35,0.35c-0.35,0.35-0.71,0.59-1.06,0.95c-0.83,0.47-1.54,0.71-2.36,1.18
		c-1.65,0.94-3.43,2.01-4.96,2.48c-0.83,0.12-1.65,0-2.6,0.12c-1.89,0.24-3.43,0.59-5.44,0.47c-2.72-0.24-4.37-1.3-5.79-2.6
		c-0.36-0.35-0.47-0.47-0.83-0.59c-0.12-0.12-0.24-0.47-0.24-0.47c-1.3-1.42-1.89-4.73-2.01-7.09c0-0.83,0-1.65,0.24-2.13
		c0.24-0.47,1.18-1.18,1.77-1.3c0.83-0.35,1.89-0.24,2.96-0.24c2.25,0,4.85,0.35,6.03,0.24c0.71-0.12,1.3-0.47,2.01-0.71
		c0.83-0.24,1.65-0.12,2.36-0.35c0.24-0.12,0.59-0.35,0.83-0.47c0.95-0.47,2.13-0.83,2.84-1.3c0.12,0,0.12-0.35,0.24-0.47
		c0.12-0.12,0.47-0.12,0.59-0.24c0.95-0.59,1.65-1.3,2.36-2.13c1.06-1.06,2.13-2.01,2.84-3.19c0.83-1.42,1.06-3.55,1.65-5.44
		c0.12,0,0.47-0.24,0.47-0.35c0.12-0.36-0.12-0.59,0-0.95c0.24-0.83,0.59-1.77,0.83-2.72c0.24-0.59,0.47-1.06,0.47-1.54
		c0.24-1.89,0-4.14-0.24-6.03c-0.12-2.01-0.24-4.02-0.83-5.44c-0.24-0.59-1.06-1.42-1.54-2.13c-0.59-0.71-0.95-1.54-1.65-1.89
		c-0.35-0.24-1.3-0.24-1.77-0.47c-0.12,0-0.24-0.35-0.47-0.47C260.49,112.59,255.88,112.71,253.4,113.06 M211.8,130.43
		c0.71-1.77,1.18-3.43,2.95-3.9c0.59-0.12,1.3-0.35,2.01-0.24c2.6,1.06,1.42,3.43,0.59,5.2c-0.83,2.25-1.42,3.78-2.6,5.79
		c-0.12,0.35,0,0.59-0.24,0.95c-0.12,0.12-0.47,0.24-0.59,0.35c-0.24,0.35-0.12,0.47-0.47,0.71c-0.12,0.12-0.35,0.24-0.59,0.24
		c-2.01,0-2.13-2.95-2.01-5.91C210.97,132.32,211.33,131.61,211.8,130.43 M195.14,114.48c-2.13-1.3-4.02-1.89-6.26-1.54
		c-0.59,0.12-1.89,0.36-2.36,0.71c-1.3,0.83-2.48,5.67-2.96,7.56c-0.12,0.35-0.35,0.71-0.47,1.06c-0.95,3.31-1.77,6.38-2.6,9.69
		c-0.35,1.65-0.71,3.19-1.3,4.73c-0.47,1.42-1.18,2.84-1.65,4.25c-1.06,3.07-1.54,7.21-1.77,10.64c-0.24,4.37,0.71,6.97,1.54,9.93
		c0.24,0.59,0.24,1.18,0.47,1.65c0.24,0.71,0.94,1.54,1.42,2.36c0.47,0.83,0.71,1.77,1.18,2.13c0.47,0.59,0.83,1.06,1.42,1.54
		c0.47,0.47,1.06,0.71,1.54,1.06c0.47,0.47,0.71,1.06,1.06,1.3c1.77,1.42,4.61,0.95,7.8,1.06c0.95,0.12,1.89,0.24,2.84,0.24
		c0.35,0,0.83-0.24,1.18-0.24c1.42,0.12,1.65,0.12,2.6-0.12c1.18-0.35,2.01-0.59,2.84-0.71c2.25-0.47,2.36-0.83,4.14-2.13
		c0.94-0.83,2.13-1.3,2.72-2.01c0.24-0.12,0.35-0.59,0.47-0.83c0.12-0.12,0.36-0.12,0.47-0.24s0-0.35,0.12-0.59
		c0.47-0.59,0.95-1.06,1.3-1.54c0.95-1.18,1.65-2.36,3.31-2.6c1.06-0.12,2.36,0.47,3.66,0.71c1.06,0.12,3.66,0.47,4.49,0.24
		c1.06-0.47,2.84-0.47,3.43-0.71c0.24-0.12,0.35-0.12,0.71-0.24c3.31-1.18,7.09-4.02,8.98-6.26c0.24-0.24,0.36-0.71,0.71-1.06
		c0-0.12,0.36-0.12,0.36-0.24c0.47-0.47,0.59-0.94,0.94-1.42c0.36-0.83,0.83-1.42,0.83-2.36c0-0.95-0.59-2.84-0.83-3.31
		c-0.24-0.24-0.24-0.47-0.47-0.59c-0.83-0.71-3.19-1.77-4.25-1.54c-1.06,0.24-1.3,1.18-2.01,2.36c-0.59,0.95-1.18,2.25-1.65,2.84
		c-0.35,0.24-0.83,0.24-0.95,0.36c0,0.12,0.12,0.47,0,0.47c-0.47,0.47-1.42,0.83-2.13,1.3c-2.24,1.3-5.32,2.25-7.56-0.24
		c-0.47-2.72,1.06-4.61,2.01-6.62c0.71-1.77,1.54-3.78,2.13-5.44c0.12-0.35,0.24-0.47,0.35-0.83c2.36-5.32,5.08-9.93,4.61-17.25
		c-0.24-3.43-1.42-6.03-3.66-7.09c-0.24-0.12-0.47-0.35-0.71-0.47c-1.65-0.71-4.73-0.95-6.38-0.59c-3.78,0.71-7.92,2.84-9.34,5.32
		c-0.47,1.06-0.94,1.89-1.54,2.84c-0.95,2.01-2.01,3.66-2.48,5.79c-0.24,0.83-0.35,1.54-0.47,2.36c-0.47,2.48-0.35,4.96-0.24,7.8
		c0.12,1.89,0,3.9,0.24,5.55c0.12,0.59,0.47,1.3,0.59,2.01l0.71,2.13c0.47,1.54,1.42,2.84,1.3,4.26c-0.12,1.06-0.71,1.89-1.3,2.84
		c-0.59,0.83-1.3,1.54-1.77,2.36c-0.24,0.47-0.35,0.94-0.59,1.3c-0.95,1.54-1.77,2.25-3.31,3.07c-2.6,0.12-4.61,0.12-6.85-0.47
		c-1.89-0.47-2.84-1.06-3.43-2.13c-0.59-1.18-0.47-2.01-0.59-3.43c-0.35-1.89-0.59-3.54-0.47-5.2c0.12-1.06,0.24-2.13,0.47-3.31
		c0.12-1.77,0.35-3.54,0.83-4.85c0.59-2.13,1.65-4.02,2.13-5.67c0.12-0.47,0.36-0.95,0.47-1.54c0.83-3.07,1.54-6.26,2.36-9.45
		C194.43,121.92,195.85,118.61,195.14,114.48 M145.74,124.64c1.06-0.35,1.42-0.47,2.6-0.59c2.72-0.47,8.39-0.71,8.98,2.13
		c0.24,0.83-0.35,2.36-0.83,3.66c-0.59,1.77-0.94,2.72-1.54,4.25c-0.24,0.83-0.95,2.48-1.65,3.31c-0.83,0.83-1.18,2.25-1.77,3.78
		c-0.24,0.83-0.59,1.54-0.83,2.25c-0.59,1.42-0.95,2.95-1.77,4.25c-0.35,0.71-1.3,1.65-2.13,2.6c-0.12,0.12-0.24,0.47-0.47,0.59
		c0,0.12-0.35,0.59-0.59,0.95c-0.59,0.71-1.18,2.13-2.01,2.95c-0.59,0.83-1.3,1.65-1.89,2.13c-0.12,0.24-0.47,0.12-0.59,0.24
		c-0.35,0.24-0.83,0.83-1.3,1.06c-1.54,0.83-3.19,1.18-5.67,0.71c-3.07-0.71-2.72-1.89-2.95-5.79c-0.12-1.77-0.35-3.43-0.24-4.96
		c0.12-1.06,0.24-2.48,0.47-3.31c0-0.24,0.47-0.59,0.59-1.06c0.12-0.35,0.12-0.95,0.24-1.3c0.35-0.95,1.18-1.89,1.65-2.96
		c0.59-0.94,1.06-2.01,1.54-3.07c1.42-2.84,2.36-5.56,4.14-7.68c0.12-0.24,0.35-0.35,0.59-0.71c0.47-0.59,1.18-1.06,2.01-1.66
		c0.35-0.35,0.71-0.59,1.06-0.94C143.73,125.23,145.03,124.88,145.74,124.64 M148.58,161.87c1.3,1.18,1.54,2.95,2.13,4.37
		c0.47,1.18,0.94,2.36,1.54,3.19c0.24,0.47,0.35,0.83,0.59,1.06c0.24,0.24,0.83,0.35,1.3,0.71c0.35,0.24,0.71,0.71,1.06,0.83
		c0.83,0.35,3.07,0.59,3.9,0.47c0.36-0.12,0.71,0.12,0.83,0.24c2.01,0,3.07-0.24,4.49-0.47c1.18-0.12,2.36,0,3.07-0.24
		c1.3-0.24,3.07-1.65,4.14-2.13c0.47-0.36,1.18-0.47,1.42-0.71c0.59-0.36,1.54-1.77,2.01-2.36c0.59-0.71,1.06-1.54,1.54-2.13
		c0-0.12,0.24-0.24,0.35-0.47c0.24-0.35,0.47-0.95,0.71-1.18c0.24-0.35,0.59-0.59,0.83-0.94c0.12-0.12,0.12-0.47,0.24-0.59
		c1.42-2.36,2.6-5.55,3.43-8.39c0.24-1.06,0.71-2.13,0.59-3.07c0-1.18-0.59-2.48-0.83-2.84c-0.12-0.12-0.24-0.47-0.47-0.59
		c-0.71-0.71-3.19-1.77-4.26-1.54c-1.3,0.24-1.65,2.01-2.13,3.07c-0.71,1.54-1.54,3.19-2.13,4.73c-0.12,0.24-0.12,0.36-0.24,0.59
		c-0.35,0.71-0.71,0.95-1.06,1.54c-0.12,0.24-0.12,0.47-0.24,0.71c-0.36,0.59-0.71,0.83-1.06,1.42c-0.24,0.47-0.47,0.94-0.71,1.3
		c-1.06,1.54-2.84,2.84-4.25,3.07c-1.18,0.12-4.85-0.35-5.67-0.94c-0.47-0.24-1.3-1.77-1.42-2.36c-0.47-1.3-0.35-5.08,0-6.14
		c0-0.12,0.12-0.59,0.12-0.95c0.12-0.12,0.12-0.59,0.24-0.83c0.12-0.24,0.59-0.35,0.71-0.71c0.12-0.24,0.12-0.59,0.24-0.83
		c0.24-0.83,0.71-1.77,1.06-2.6c0.47-1.06,1.06-2.13,1.42-3.19c0.47-1.18,0.71-2.36,1.18-3.66c0-0.12,0.35-0.47,0.35-0.59
		c0.12-0.47,0.12-0.83,0.24-1.18c0.95-2.95,2.48-5.55,3.43-8.39c0.24-0.47,0.47-1.06,0.71-1.66c0.12-0.59,0.12-1.42,0.36-2.01
		c0.47-1.06,1.89-2.48,2.6-4.02c0.24-0.47,0.24-0.95,0.47-1.54c0.12-0.47,0.47-1.06,0.59-1.54c0.95-3.54,0.12-4.73-2.72-5.32
		c-3.78-0.83-6.15,0-10.64,0.12c-1.89,0.12-3.9-0.12-5.55,0c-0.59,0.12-1.06,0.47-1.54,0.47c-1.06,0-2.01-0.35-2.96-0.24
		c-1.18,0.12-2.95,0.94-3.9,1.06c-1.18,0.24-1.42,0.35-2.01,0.71c-0.12,0.12-0.35,0-0.59,0.24c-0.24,0.12-0.59,0.59-0.83,0.83
		c-1.42,0.95-3.07,1.65-4.37,2.6c-0.36,0.24-0.47,0.59-0.83,0.83c-0.47,0.35-0.95,0.35-1.3,0.71c-0.47,0.35-1.54,1.54-1.89,1.89
		c-0.47,0.36-0.59,0.59-0.95,1.06c-0.24,0.35-0.35,0.59-0.59,0.83c-0.59,0.83-1.42,1.77-1.77,2.36c-0.12,0.35-0.24,0.83-0.35,1.18
		c-0.35,0.59-0.83,1.06-1.18,1.66c-1.18,2.36-2.13,5.2-3.43,7.8c-0.59,1.18-1.3,2.48-1.65,3.9c-0.71,2.25-1.3,4.37-1.77,6.62
		c-0.12,0.83-0.24,1.65-0.47,2.36c-0.24,1.65-0.71,3.43-0.83,4.96c-0.12,1.42,0.24,4.14,0.24,5.2c0,0.59-0.24,1.06-0.24,1.65
		c0.12,1.3,0.59,2.84,0.83,4.14c0.35,1.18,0.59,2.24,0.94,3.07c0.59,1.3,1.3,1.42,2.6,2.13c0.83,0.47,1.65,1.18,2.36,1.3
		c1.06,0.24,2.72-0.12,4.26-0.24c2.01-0.12,4.14-0.24,4.96-0.47c1.18-0.35,2.13-1.54,3.19-2.36c0.36-0.24,0.71-0.24,0.95-0.35
		c0.59-0.83,0.59-0.95,1.42-1.3c0.35-0.24,0.47-0.71,0.71-0.95c0.24-0.12,0.59-0.12,0.83-0.35c0.24-0.24,0.35-0.71,0.71-0.95
		c0.35-0.35,0.83-0.47,1.06-0.83c0.24-0.47,0.59-0.95,0.83-1.3C146.22,162.58,147.4,162.34,148.58,161.87 M93.39,127
		c-0.12-1.77,0.12-2.84,1.3-3.07c0.71-0.12,0.95,0.47,1.89,1.18c1.06,0.59,2.13,1.06,3.07,1.65c0.12,0.12,0.12,0.36,0.24,0.47
		c0.12,0.12,0.47,0,0.59,0.24c0.71,0.47,1.42,0.83,1.54,1.66c0.12,1.06-0.83,2.24-1.54,3.43c-0.71,1.18-1.54,2.6-1.89,3.43
		c-0.12,0.12-0.47,0.24-0.47,0.24c-0.12,0.35-0.24,0.59-0.47,0.95c-0.24,0.59-0.36,1.3-0.59,1.89c-0.24,0.59-0.71,1.06-0.83,1.54
		c-0.12,0.12,0,0.47,0,0.59c-0.12,0.12-0.47,0.12-0.47,0.24c-0.12,0.35-0.12,0.71-0.24,1.06c-0.95,2.13-1.77,4.73-2.84,7.09
		c-0.12,0.59-0.59,1.06-0.83,1.54c-0.12,0.35-0.12,0.71-0.24,1.06c-0.24,0.95-0.59,1.77-0.83,2.84c-0.35,1.54-0.24,2.48-0.24,3.43
		c0.12,0.71-0.12,1.42,0,1.89c0.24,1.42,1.06,3.07,1.54,4.14c0.59,1.42,1.3,2.6,1.89,3.66c0.95,1.42,1.54,2.25,2.6,3.07
		c0.24,0.12,0.59,0.59,0.71,0.59c0.47,0.24,1.77,0.35,2.72,0.47c1.06,0.12,2.13,0.12,3.07,0.24c2.01,0.12,4.02,0.35,5.79,0.12
		c0.71,0,1.54-0.47,2.36-0.59c0.95-0.24,2.01-0.24,2.84-0.47c0.71-0.24,1.54-0.83,2.36-1.3c0.71-0.35,1.77-0.71,2.13-1.06
		c0.71-0.59,1.18-1.18,2.01-2.13c0.24-0.35,0.59-0.59,0.83-0.83c0.24-0.47,0.35-0.95,0.59-1.3c0.83-1.18,1.54-2.24,2.25-3.31
		c0.24-0.35,0.59-0.59,0.83-1.06c0.36-0.59,0.47-1.65,0.83-2.6c0.35-0.71,0.95-1.54,1.3-2.36c0.24-0.71,0.47-1.65,0.71-2.6
		c0.24-0.95,0.59-2.01,0.59-2.72c0-1.18-0.59-2.72-0.83-3.07c-0.59-0.83-0.94-0.83-1.77-1.3c-0.83-0.35-1.89-1.06-2.95-0.83
		c-1.3,0.24-2.01,2.25-2.6,3.9c-0.47,1.18-1.18,2.48-1.54,3.19c-0.24,0.35-0.24,0.95-0.47,1.3c-0.12,0.24-0.59,0.59-0.83,0.83
		c-0.83,1.18-1.66,2.25-2.6,3.31c-1.3,1.3-2.96,2.72-4.25,3.19c-0.24,0.12-0.94,0.12-1.3,0.24c-0.47,0.12-0.83,0.35-1.3,0.47
		c-0.83,0-3.9-0.59-4.37-0.94c-0.47-0.36-0.83-1.18-1.3-1.89c-0.35-0.83-0.94-1.65-1.06-2.36c-0.59-3.43,0.71-6.03,1.54-8.04
		c0.47-1.18,0.83-2.36,1.3-3.19c0.47-0.71,1.18-1.42,1.77-2.13c0.12-0.24,0-0.47,0.12-0.71c0.12-0.12,0.59-0.24,0.71-0.35
		c0-0.12-0.12-0.36,0-0.47c0-0.12,0.35-0.12,0.47-0.24c0-0.12-0.12-0.24,0-0.35c0-0.12,0.36-0.12,0.36-0.24
		c0.59-1.18,0.71-2.48,1.3-3.66c0.59-1.18,1.65-2.48,2.13-3.43c0.12-0.12,0.47-0.24,0.47-0.24c0.24-0.35,0.24-0.59,0.47-0.95
		c0.36-0.47,0.47-1.18,0.83-1.65c0.35-0.59,0.83-0.95,1.06-1.54c0.71-1.3,1.06-4.26,0-5.32c-0.12-0.24-0.71-0.35-0.83-0.47
		c-0.24-0.12-0.24-0.47-0.47-0.71c-0.71-0.59-1.42-1.06-2.13-1.42c-1.06-0.71-2.01-1.18-2.6-2.01c-0.71-0.95-1.54-1.54-2.36-2.13
		l-0.24-0.24c-0.12-0.12-0.47-0.24-0.59-0.35c-0.24-0.24-0.24-0.12-0.47-0.24c-0.71-0.47-1.18-1.06-1.77-1.54
		c-1.18-1.06-1.77-2.25-2.48-3.43c-0.47-0.71-1.06-1.42-1.77-2.36c-0.36-0.59-0.95-1.65-1.3-2.01c-1.3-1.3-1.54-2.84-4.25-2.36
		c-0.35,0.12-0.47,0.35-0.71,0.47c-1.06,0.59-2.48,1.3-3.43,2.36c-1.06,1.18-1.89,2.6-1.89,3.9c-0.12,2.48,0.47,1.77,1.18,3.43
		c-2.84,4.37-4.37,9.57-5.79,14.89c-0.59,2.48-1.42,5.2-2.6,7.68c-0.24,0.59-0.59,1.18-0.83,1.77c-0.59,1.3-0.83,2.48-1.3,3.9
		c-0.24,0.83-0.83,2.25-1.06,2.72c0,0.12-0.35,0.24-0.47,0.24c-0.12,0.47-0.12,1.06-0.35,1.54c-0.47,0.95-1.18,1.65-1.54,2.36
		c-0.24,0.47-0.24,1.06-0.47,1.54c0,0.12-0.24,0.24-0.35,0.47c-0.12,0,0,0.24,0,0.35c-0.12,0.12-0.47,0.12-0.47,0.24
		c-0.47,0.83-0.83,1.89-1.06,2.84c1.65,1.89,4.02,3.43,6.62,2.36c1.06-0.47,1.54-1.06,2.25-1.54c0.35-0.24,1.06-0.83,1.3-1.06
		c0.12-0.24,0-0.59,0.12-0.83c0.12-0.24,0.59-0.47,0.71-0.71c0.24-0.59,0.36-1.3,0.59-1.89c0.47-1.06,1.3-2.25,1.77-3.31
		c0.24-0.47,0.35-1.06,0.59-1.65c0.59-1.18,1.06-2.36,1.54-3.43c0.24-0.59,0.59-1.18,0.83-1.77c1.3-3.07,2.36-6.26,3.31-9.1
		C91.74,130.31,92.21,128.3,93.39,127 M72.12,98.64c5.91-0.12,10.64,0.24,15.6-0.24c2.96-0.36,4.85-0.95,6.86-1.77
		c1.42-0.59,2.6-1.18,3.66-1.65c1.3-0.83,2.72-1.3,3.19-2.36c0.35-0.83,0.35-1.66,0.24-2.48c-0.12-0.83-0.35-1.42-0.83-2.36
		c-1.06-2.13-2.01-3.31-4.14-2.72c-1.3,0.35-2.6,1.18-4.14,1.65c-0.36,0.24-0.83,0.12-1.18,0.24c-0.35,0.12-0.59,0.59-0.95,0.71
		c-0.35,0.12-0.83,0-1.3,0.12c-2.13,0.71-5.67,1.06-8.63,0.94c-2.01-0.24-4.25-0.59-6.38-1.06c-1.65,0.59-3.43,0.35-4.96,0.35
		c-1.89,0-3.78,0.12-5.67,0c-3.43-0.12-6.85-0.83-10.05-1.06c-2.36-0.12-4.84,0.24-7.21,0.24c-2.48,0-4.96,0-7.33,0.24
		c-4.49,0.24-8.51,1.3-12.41,2.36c-1.89,0.47-3.66,1.18-5.44,1.89c-0.83,0.35-1.77,0.71-2.6,1.06c-0.35,0.24-0.71,0.71-1.06,0.95
		c-0.47,0.24-0.94,0.35-1.3,0.59c-0.71,0.47-1.18,1.18-1.89,1.77c-0.71,0.47-1.54,0.95-2.24,1.42c-1.18,1.18-3.07,3.19-3.78,4.37
		c-0.71,0.95-1.18,2.36-1.77,3.43c-0.24,0.47-0.59,0.71-0.83,1.06c-0.47,0.83-0.71,1.77-1.06,2.6c-0.47,0.95-0.95,1.89-1.06,2.6
		c-0.47,1.42-0.47,3.07-0.71,4.73c-0.12,0.71-0.35,1.54-0.47,2.13c-0.35,2.6-0.12,4.37,0.24,6.97c0.24,1.3,0.35,2.84,0.71,4.02
		c0.12,0.71,0.59,1.3,0.83,2.01s0.35,1.65,0.59,2.36c0.47,0.95,1.3,2.01,1.77,2.84c0.24,0.24,0.24,0.83,0.47,1.06
		c0.59,0.83,1.89,1.65,2.96,2.6c0.59,0.36,0.94,0.83,1.54,1.18c0.83,0.59,1.54,0.83,2.36,1.18c0.12,0,0.35,0.35,0.47,0.35
		c1.89,0.71,4.14,0.95,6.38,1.3c1.18,0.24,2.36,0.36,3.55,0.47c0.24,0,0.47-0.24,0.59-0.24c0.59,0,1.89,0.59,2.6,0
		c0.35-0.24,0.71-0.47,0.83-0.59c0.12-0.12,0.36-0.12,0.47-0.24c1.54-1.65,2.01-6.5,0.83-8.63c-0.12-0.24-0.35-0.83-0.35-0.95
		c-0.12,0-0.35,0.12-0.47,0c-2.01-1.18-3.9-0.12-6.03-0.59c-1.18-0.24-2.84-1.18-4.14-1.89c-1.06-0.71-1.89-1.18-2.6-2.01
		c-0.71-0.83-0.71-1.54-1.06-2.84c-0.47-1.65-1.42-4.02-1.54-5.55c-0.24-3.19,0.83-5.79,1.54-7.8c0.24-0.47,0.24-1.06,0.47-1.42
		c0-0.12,0.35-0.24,0.35-0.24c0.24-0.24,0.12-0.47,0.24-0.71c0.47-0.71,1.18-1.54,1.54-2.13c0.59-0.83,1.06-1.42,1.77-2.13
		c0.47-0.59,0.94-1.3,1.42-1.77c0.94-0.71,1.54-1.06,2.36-1.65c0.24-0.12,0.24-0.35,0.47-0.47c1.06-0.59,1.89-1.06,2.84-1.54
		c3.31-1.42,7.09-2.24,10.99-2.72c3.54-0.59,6.85-1.3,10.99-0.95l0.59,0.47c1.42,0.36,2.72-0.12,3.66,0.24
		c0.35,0.12,1.42,0.94,1.54,1.06c0.12,0.12,0.12,0.47,0.24,0.59c0.59,0.71,1.18,1.18,1.54,2.01c0.35,0.95,0.59,2.36,0.59,3.43
		c0,1.06-0.71,2.36-1.06,3.66c-0.36,1.18-0.71,2.48-1.06,3.66c-1.18,3.78-2.36,7.21-3.43,10.75c-0.24,0.59-0.59,1.06-0.71,1.77
		c0,0.35,0.12,0.71,0,1.06c0,0.35-0.35,0.59-0.35,0.83c-0.59,1.89-1.3,3.78-1.77,5.44c-0.24,0.59-0.24,1.54-0.47,2.13
		c0,0.12-0.35,0.47-0.35,0.59c-0.36,0.71-0.47,1.3-0.71,1.77c-0.83,2.24-1.3,4.25-1.89,6.5c-1.54,5.67-3.07,11.58-4.96,16.54
		c-0.47,1.3-1.18,2.48-1.3,3.66c-0.24,1.54,0,3.19,0.24,4.73c1.18,1.06,2.72,1.65,4.96,1.77c1.89,0,4.14-0.47,5.79-0.83
		c0.83-0.59,1.06-1.65,1.54-2.48c0.35-0.83,0.95-1.66,1.3-2.48c0.35-1.18,0.35-2.48,0.59-3.66c0.24-1.3,0.35-2.6,0.71-3.9
		c0.24-1.06,0.71-2.13,1.06-3.31c0.35-1.18,0.35-2.48,0.83-3.66c0.35-0.94,1.18-2.24,1.54-2.95c0-0.12,0.12-0.36,0.24-0.71
		c0.59-1.3,1.3-2.48,1.65-3.78c0.24-0.95,0.24-1.89,0.47-2.84c0.12-1.06,0.24-2.01,0.35-3.07c0.24-0.71,0.71-1.3,0.95-2.13
		c0.24-0.83,0.35-1.77,0.59-2.6c0.59-1.54,1.18-3.07,1.54-4.73c0.24-0.83,0.24-1.65,0.47-2.6c0.35-1.65,1.06-3.31,1.42-4.96
		c0.35-0.83,0.59-1.54,0.94-2.36c0.71-2.36,1.42-5.2,2.13-7.33c0.83-2.48,1.77-5.08,2.6-7.56c0,0,0.35-0.24,0.35-0.35
		C71.17,100.77,71.06,99.35,72.12,98.64"/>
</g>
<polygon class="st1" points="151.88,53.17 147.68,65.04 135.09,65.37 145.09,73.02 141.5,85.1 151.88,77.96 162.25,85.1 
	158.66,73.02 168.66,65.37 156.07,65.04 "/>
<g>
	<defs>
		<rect id="SVGID_00000072998791349186252120000001316092859755556497_" x="2.1" y="4.19" width="308.29" height="278.69"/>
	</defs>
	<clipPath id="SVGID_00000081609654370143993320000010331765900654555288_">
		<use xlink:href="#SVGID_00000072998791349186252120000001316092859755556497_"  style="overflow:visible;"/>
	</clipPath>
	<path style="clip-path:url(#SVGID_00000081609654370143993320000010331765900654555288_);fill:#FFFFFF;" d="M124.17,69.49
		c-1.48-1.21-4.27-1.01-6.86-1.11c-1.65-0.07-3.43-0.17-4.6,0c-1.58,0.2-2.42,0.87-2.59,2.18c-0.17,1.71,0.17,3.19,1.11,3.66
		c0.61,0.3,1.04,0.2,1.95,0.24c2.35,0.17,5.01,0.03,7.09,0c0.5,0,0.94,0.17,1.34,0.13c0.81-0.1,1.61-0.57,2.29-0.84
		C124.67,72.75,124.88,70.66,124.17,69.49"/>
	<path style="clip-path:url(#SVGID_00000081609654370143993320000010331765900654555288_);fill:#FFFFFF;" d="M193.13,69.49
		c-1.48-1.21-4.27-1.01-6.86-1.11c-1.65-0.07-3.43-0.17-4.61,0c-1.58,0.2-2.42,0.87-2.59,2.18c-0.17,1.71,0.17,3.19,1.11,3.66
		c0.6,0.3,1.04,0.2,1.95,0.24c2.35,0.17,5.01,0.03,7.09,0c0.5,0,0.94,0.17,1.34,0.13c0.81-0.1,1.61-0.57,2.29-0.84
		C193.63,72.75,193.84,70.66,193.13,69.49"/>
	<path style="clip-path:url(#SVGID_00000081609654370143993320000010331765900654555288_);fill:#FFFFFF;" d="M263.2,43.59
		c-0.43-0.22-0.7-0.53-1.04-0.85c-0.36-0.3-0.78-0.59-1.12-0.91c-0.84-0.73-2.25-2.4-3.23-2.63c-0.41-0.08-1.25-0.28-1.48-0.26
		c-0.07-0.02-0.13,0.16-0.15,0.18c-0.07,0.03-0.25-0.07-0.29-0.07c-1.18,0.34-2.69,2.93-4.21,4.59c-0.32,0.39-0.7,0.64-0.93,0.98
		c-0.29,0.41-0.45,0.93-0.75,1.29c-0.28,0.34-0.75,0.6-1.1,0.97c-0.54,0.56-1.04,1.28-1.61,1.98c-0.55,0.68-1.43,1.87-1.94,2.54
		c-1.33,1.95-3.38,3.83-3.62,5.24c-0.1,0.65,0.12,1.61,0.27,1.96c0.17,0.27,0.6,0.54,0.9,0.86c0.27,0.31,0.4,0.63,0.68,0.86
		c0.9,0.82,2.2,1.45,3.26,2.22c0.64,0.44,1.14,1.06,1.69,1.38c0.15,0.08,0.31-0.01,0.46,0.03c0.86,0.22,1.45,0.66,2.09,0.31
		c0.23-0.12,0.35-0.37,0.57-0.49c0.38-0.25,0.87-0.38,1.15-0.67c0.33-0.3,0.61-0.8,1-1.22c0.17-0.9,0.34-1.59-0.3-2.29
		c-0.43-0.43-1.07-0.65-1.66-1.05c-1.3-0.8-2.05-1.37-2.07-2.3c-0.05-0.95,0.59-1.21,1.41-2.32c0.57-0.06,0.92-0.33,1.56-0.16
		c0.89,0.24,1.69,1.33,2.61,1.21c0.62-0.28,1.27-1.13,1.82-1.86c0.67-0.88,1.05-1.4,0.83-2.14c-0.95-1.07-2.7-1.9-2.41-3.05
		c0.12-0.47,0.57-0.97,1.17-1.43c1.07-0.08,1.92,1.05,2.95,1.8c0.41,0.29,0.97,0.62,1.47,0.85c0.93,0.5,1.39,0.79,2.11,0.33
		c0.65-0.42,1.51-1.32,1.88-1.94c0.87-1.5,0.11-2.64-1.65-3.56c0,0-0.06-0.14-0.09-0.16C263.39,43.84,263.29,43.75,263.2,43.59
		 M242.49,36.18c1.32,0.36,2.46,1.4,3.5,1.06c1.31-0.37,2.83-3.34,2.46-4.33c-0.21-0.61-1.89-1.79-2.7-2.15
		c-0.69-0.36-1.64-1-2.52-1.48c-0.6-0.3-1.89-0.72-2.36-1.05c-0.06-0.04-0.07-0.2-0.26-0.28c-0.56-0.31-1.16-0.49-1.66-0.77
		c-1-0.55-1.79-1.25-2.62-1.38c-1.28,1.14-2.36,3.04-2.07,4.46c0.44,0.56,1.47,1.01,2.17,1.53c-0.15,0.42,0.01,1-0.18,1.48
		c-0.17,0.33-0.5,0.6-0.83,1.06c-0.23,0.29-0.43,0.68-0.65,1.02c-1.03,1.5-2.3,3-3.31,4.55c-0.57,0.83-0.92,1.77-1.45,2.54
		c-0.3,0.41-0.72,0.7-1.02,1.11c-0.25,0.4-0.44,0.95-0.73,1.41c-1,1.64-2.02,2.7-1.46,4.13c0.81,0.47,1.53,1.29,2.4,1.68
		c0.7,0.28,1.76,0.36,2.24,0.1c0.46-0.23,0.95-0.99,1.48-1.65c0.53-0.66,1.02-1.3,1.42-2c0.54-0.97,0.92-2.08,1.38-2.87
		c0.82-1.43,2.02-2.62,2.86-3.84c1.05-1.53,1.93-2.92,2.88-4.11C241.83,36.48,242.15,36.29,242.49,36.18 M214.22,28.95
		c-0.23-0.32-0.43-0.6-0.43-0.85c0.11-0.32,0.33-0.66,0.57-0.96c0.36-0.47,1.03-1.09,1.57-1.14c1.21-0.16,2.17,0.82,2.64,1.84
		c-0.29,0.83,0.04,1.49-0.37,2.08c-0.48,0.67-1.3,0.6-2.48,0.11c-0.28-0.12-0.73-0.18-0.82-0.22
		C214.63,29.61,214.38,29.17,214.22,28.95 M216.43,43.17c0.82,0.4,2.24,1.51,3.28,1.06c0.38-0.2,1.1-1.24,1.33-1.84
		c0.4-0.89,0.71-2.66,0.94-3.59c0.12-0.43,0.35-0.87,0.45-1.27c0.05-0.27-0.03-0.6,0-0.92c0.12-1.09,0.2-1.93,0.34-2.9
		c0.25-1.73,0.52-3.48,0.77-5.03c0.13-0.71,0.3-1.34,0.36-1.97c0.03-0.32-0.03-0.6,0-0.92c0.07-1.07,0.16-2.02,0.2-2.85
		c0.04-0.83,0.05-1.27-0.07-1.91c-0.21-1.01-0.41-1.8-1.07-2.46c-0.81-0.33-1.51-0.74-2.21-0.98c-0.67-0.23-1.56-0.47-2.1-0.42
		c-0.6,0.1-1.29,0.68-1.8,1.07c-0.62,0.5-1.26,1.02-1.69,1.64c-1.19,0.35-1.77,1.42-2.74,2.28c-0.75,0.7-1.67,1.1-2.01,2.45
		c-1.08,0.77-1.95,2.15-2.69,3.07c-1.38,1.7-2.45,2.62-3.85,4.43c-0.33,0.41-0.67,0.92-1.02,1.38c-0.84,1.06-1.22,1.41-0.9,2.28
		c0.12,0.39,0.22,0.43,0.47,0.76c0.43,0.45,1.14,0.99,1.75,1.18c0.37,0.09,1.54,0.02,1.74-0.03c0.65-0.23,1.35-1.05,1.96-1.67
		c0.29-0.31,0.57-0.78,0.89-1.08c0.13-0.13,0.37-0.17,0.54-0.31c0.2-0.21,0.31-0.45,0.5-0.55c0.94-0.54,2.33-0.36,3.56,0.11
		c0.79,0.28,2.33,1.04,2.79,1.5c0.19,0.16,0.55,0.83,0.59,1.07c0.07,0.25-0.01,0.69-0.06,1.04c-0.01,0.36-0.01,0.69-0.06,1.04
		c-0.08,0.77-0.44,1.57-0.48,2.32c-0.02,0.29,0.21,0.61,0.27,0.89c-0.01,0.18-0.18,0.4-0.17,0.62
		C216.3,42.9,216.54,42.93,216.43,43.17 M201.23,17.09c1.37-0.02,2.75,0.66,3.66,0.05c1.15-0.71,1.79-3.99,1.16-4.84
		c-0.37-0.53-2.31-1.2-3.19-1.31c-0.76-0.15-1.85-0.5-2.84-0.72c-0.66-0.12-2.02-0.17-2.56-0.36c-0.07-0.02-0.12-0.18-0.33-0.2
		c-0.62-0.15-1.25-0.15-1.81-0.28c-1.12-0.25-2.07-0.71-2.91-0.6c-0.91,1.45-1.42,3.58-0.75,4.86c0.58,0.41,1.69,0.56,2.51,0.87
		c-0.02,0.45,0.28,0.96,0.24,1.47c-0.07,0.36-0.31,0.71-0.5,1.25c-0.14,0.35-0.23,0.77-0.34,1.16c-0.57,1.72-1.37,3.52-1.92,5.29
		c-0.31,0.96-0.39,1.95-0.69,2.85c-0.17,0.47-0.5,0.87-0.67,1.34c-0.13,0.45-0.16,1.04-0.31,1.56c-0.5,1.85-1.2,3.15-0.26,4.37
		c0.91,0.23,1.83,0.81,2.77,0.95c0.75,0.08,1.79-0.15,2.18-0.52c0.38-0.35,0.63-1.22,0.96-1.99c0.33-0.78,0.62-1.54,0.81-2.32
		c0.24-1.08,0.31-2.26,0.53-3.14c0.39-1.6,1.21-3.08,1.69-4.48c0.58-1.76,1.04-3.34,1.62-4.74
		C200.67,17.55,200.93,17.28,201.23,17.09 M181.69,24.66c0.25-1.8,0.4-3.17,0.17-4.29c-0.19-0.95-0.51-1.51-1.22-2.41
		c-0.23-0.27-0.51-0.45-0.73-0.73c-0.26-0.28-0.34-0.63-0.61-0.85c-0.21-0.17-0.82-0.4-1.39-0.7c-0.47-0.28-0.9-0.52-1.35-0.72
		c-1.17-0.56-2.13-0.92-2.19-1.85c-0.04-0.82,0.53-1.41,0.78-1.71c0.09-0.12,0.08-0.26,0.16-0.35c0.12-0.08,0.29-0.12,0.4-0.17
		c0.75-0.46,1.27-0.27,2.35,0c1.11,0.28,3.33,0.9,4.22,0.67c0.18-0.04,0.16-0.14,0.3-0.19c0.08-0.06,0.28-0.02,0.39-0.07
		c0.4-0.35,0.62-1.13,0.77-1.85c0.33-1.65,0.04-2.61-1.02-2.99c-0.15-0.09-0.4-0.03-0.6-0.1c-0.64-0.24-1.41-0.56-1.97-0.69
		c-1.83-0.5-4.01-0.71-4.71-0.75c-0.57-0.06-1.08-0.07-1.6-0.02c-1.58,0.09-2.43,0.5-3.52,1.17c-0.71,0.43-1.33,0.88-1.73,1.46
		c-0.76,1.14-1.27,3.95-1.09,5.37c0.1,0.87,0.25,2.25,0.56,2.68c0.25,0.35,0.41,0.64,0.7,0.96c0.75,0.83,1.54,1.23,2.71,1.79
		c1.99,1,5.15,2.32,5.1,4.28c-0.02,0.75-0.42,1.6-0.81,2.08c-0.85,1.09-1.74,1.12-2.94,0.52c-0.82-0.4-1.25-0.91-1.89-1.39
		c-0.48-0.38-0.98-0.7-1.54-0.99c-0.59-0.33-1.18-0.7-2-0.69c-0.44,0-1.36,0.43-1.6,0.63c-0.12,0.12-0.16,0.35-0.33,0.56
		c-0.5,0.57-1.05,1.23-1,2.43c0.08,1.44,2.22,2.94,3.5,3.66c0.53,0.29,1.18,0.7,1.7,0.88c0.64,0.24,1.54,0.35,2.27,0.46
		c2.35,0.44,3.5,0.46,4.95-0.06c0.29-0.09,0.83-0.28,0.94-0.36c0.11-0.05,0.11-0.02,0.25-0.06c0.37-0.18,0.66-0.51,0.97-0.73
		c0.3-0.16,0.61-0.21,0.8-0.35c0.51-0.4,1.04-0.96,1.2-1.31c0.13-0.18,0.38-0.86,0.46-1.15C181.61,26.18,181.57,25.39,181.69,24.66
		 M143.99,19.48c-0.08-0.2-0.37-0.41-0.4-0.48c-0.16-0.36-0.19-0.8-0.45-1.18c-0.19-0.32-0.66-0.8-1.06-1.14
		c-0.5-0.47-1.17-0.83-1.66-1.13c-0.38-0.21-0.68-0.56-1.03-0.77c-0.49-0.3-1.11-0.46-1.5-0.74c-0.35-0.24-0.79-0.75-1.19-1.16
		c-0.51-0.5-0.94-0.98-0.98-1.51c0.02-0.24,0.12-0.24,0.24-0.49c0.29-0.73,0.49-1.18,1.25-1.33c1.26-0.26,2.6,1.03,3.6,0.86
		c0.73-0.12,0.69-0.76,1.51-1.08c0.32-0.76,0.67-1.53,0.57-2.5c-0.19-1.84-1.96-2.05-3.47-2.45c-1.13-0.26-1.93-0.2-2.93-0.03
		c-0.9,0.16-1.37,0.2-1.93,0.37c-1.15,0.42-1.3,0.66-1.86,1.38c-0.22,0.25-0.57,0.58-0.69,0.76c-0.06,0.11-0.01,0.27-0.11,0.38
		c-0.34,0.49-0.8,1.03-0.98,1.42c-0.09,0.14-0.05,0.24-0.11,0.38c-0.09,0.21-0.3,0.49-0.33,0.63c-0.07,0.41-0.03,1.05-0.04,1.35
		c0.01,1.65,0.34,2.91,0.92,3.98c0.32,0.65,1.08,1.41,1.44,1.85c0.11,0.09,0.08,0.26,0.16,0.36c0.33,0.31,0.88,0.58,1.27,0.89
		c0.46,0.37,0.83,0.75,1.18,1.03c0.96,0.67,2.08,1.3,2.25,2.27c0.12,0.73-0.08,0.75-0.26,1.64c-0.68,0.38-1.28,0.53-2.15,0.62
		c-0.87,0.09-1.83-0.18-2.6-0.05c-0.87,0.13-1.84,0.73-2.09,1.49c-0.36,1.07,0.09,3.16,0.88,3.95c0.79,0.28,1.64,0.36,2.49,0.47
		c0.91,0.07,1.97,0.2,2.81,0.18c1.85-0.1,4.23-0.7,5.15-1.47c0.64-0.55,1.01-0.91,1.37-1.58c0.39-0.7,0.48-0.91,0.62-1.76
		C144.1,23.45,144.59,20.89,143.99,19.48 M111.21,21.21c-0.37-0.12-0.7-0.22-0.85-0.43c-0.11-0.32-0.13-0.73-0.11-1.11
		c0.01-0.59,0.18-1.49,0.58-1.85c0.88-0.85,2.23-0.64,3.22-0.1c0.26,0.84,0.92,1.17,0.94,1.89c0.01,0.82-0.68,1.26-1.92,1.57
		c-0.29,0.07-0.69,0.29-0.79,0.32C111.93,21.49,111.47,21.29,111.21,21.21 M121.47,31.31c0.89-0.17,2.69-0.12,3.26-1.11
		c0.19-0.39,0.15-1.65-0.03-2.27c-0.21-0.95-1.02-2.56-1.39-3.44c-0.16-0.41-0.24-0.91-0.39-1.29c-0.12-0.25-0.38-0.47-0.55-0.74
		c-0.56-0.94-0.99-1.67-1.46-2.53c-0.83-1.54-1.66-3.11-2.39-4.49c-0.32-0.65-0.56-1.25-0.88-1.8c-0.17-0.27-0.38-0.47-0.55-0.74
		c-0.58-0.9-1.07-1.72-1.54-2.41c-0.46-0.69-0.72-1.05-1.19-1.49c-0.77-0.69-1.41-1.2-2.33-1.34c-0.84,0.23-1.65,0.3-2.36,0.53
		c-0.67,0.22-1.53,0.55-1.93,0.92c-0.42,0.44-0.64,1.31-0.81,1.94c-0.21,0.77-0.4,1.57-0.37,2.32c-0.74,0.99-0.58,2.2-0.84,3.46
		c-0.19,1.01-0.68,1.88-0.15,3.17c-0.41,1.26-0.28,2.89-0.33,4.07c-0.09,2.19-0.41,3.57-0.45,5.85c-0.02,0.52,0.01,1.13,0.01,1.72
		c-0.04,1.35-0.13,1.86,0.64,2.37c0.33,0.24,0.43,0.21,0.83,0.33c0.61,0.1,1.51,0.11,2.11-0.1c0.35-0.15,1.24-0.9,1.38-1.07
		c0.39-0.57,0.46-1.65,0.57-2.51c0.04-0.42-0.01-0.96,0.07-1.39c0.03-0.18,0.2-0.35,0.25-0.57c0.04-0.29-0.02-0.55,0.08-0.74
		c0.43-0.99,1.65-1.68,2.92-2.03c0.81-0.25,2.49-0.56,3.13-0.46c0.24,0.01,0.94,0.34,1.11,0.51c0.21,0.16,0.4,0.57,0.57,0.87
		c0.21,0.3,0.4,0.56,0.57,0.87c0.39,0.67,0.58,1.52,1,2.15c0.16,0.24,0.53,0.36,0.75,0.56c0.1,0.15,0.1,0.43,0.24,0.6
		C121.2,31.16,121.41,31.04,121.47,31.31 M98.1,32.95c-0.67-0.42-1.81-1.16-2.45-1.51c-1.24-0.74-2.56-1.33-3.65-2.23
		c-0.44-0.37-0.88-0.74-1.1-1.12c-0.98-1.71-0.5-2.59-0.29-3.98c0.03-0.19-0.03-0.42-0.01-0.65c0.05-0.31,0.25-0.72,0.32-0.92
		c0.02-0.12-0.04-0.27-0.04-0.38c0.12-0.7,0.16-1.22,0.28-1.92c0.12-0.7,0.23-1.32,0.27-1.95c0.01-0.26,0.12-0.52,0.12-0.7
		c-0.1-1.7-0.91-2.17-2.01-2.38c-0.19-0.03-0.56-0.14-0.56-0.14c-0.33-0.01-1.57,0.34-1.69,0.39c-0.14,0.09-0.17,0.29-0.24,0.39
		c-0.16,0.14-0.41,0.24-0.6,0.49c-0.22,0.34-0.44,1.15-0.59,1.79c-0.16,0.68-0.28,1.38-0.39,2c-0.13,0.85-0.19,2.14-0.39,2.91
		C85,23.32,85.12,23.45,85,23.6c-0.81,1.23-2.47-0.28-3.1-0.86c-0.41-0.38-0.74-0.75-1.06-1.02c-0.43-0.34-0.84-0.57-1.19-0.97
		c-0.39,0.12-0.44-0.19-0.62-0.29c-0.57-0.24-1.54-0.58-2.33-0.22c-0.99,0.43-1.91,2.36-1.76,3.2c0.28,1.34,1.43,2.11,2.11,2.56
		c0.6,0.41,1.04,0.88,1.59,1.35c0.01,0.03,0.2-0.04,0.26,0.01c0.07,0.08,0.04,0.28,0.14,0.34c0.1,0.07,0.34,0.12,0.48,0.21
		c0.12,0.13,0.16,0.3,0.28,0.43c0.14,0.09,0.37,0.11,0.47,0.17c1.76,1.32,3.08,3.87,2.8,5.98c-0.16,1.22-0.51,2.24-0.76,3.35
		c-0.06,0.31-0.11,0.73-0.2,1.13c-0.21,0.92-0.85,2.66-0.45,3.48c0.16,0.3,0.29,0.35,0.61,0.52c0.49,0.31,0.82,0.43,1.23,0.45
		c0.03-0.01,0.14,0.16,0.21,0.17c1.02,0.28,2.4-0.42,3.06-1.23c0.35-0.39,0.52-1.15,0.75-1.75c0.44-1.34,0.86-3.46,1.89-4.42
		c1.18-1.12,1.75-0.7,2.98-0.15c0.58,0.27,1.9,1.41,2.5,1.71c2,1.01,1.66,1.07,3.22,0.45c1.47-0.59,2.62-1.85,2.42-2.82
		C100.29,34.35,98.95,33.44,98.1,32.95 M59.96,28.74c-0.35,0.33-0.73,0.48-1.15,0.69c-0.4,0.24-0.82,0.53-1.24,0.74
		c-0.97,0.54-3.02,1.3-3.58,2.14c-0.21,0.36-0.69,1.08-0.74,1.31c-0.04,0.06,0.1,0.17,0.12,0.2c0.01,0.07-0.15,0.21-0.16,0.25
		c-0.09,1.23,1.84,3.52,2.88,5.52c0.26,0.43,0.37,0.88,0.6,1.21c0.29,0.41,0.72,0.74,0.96,1.15c0.22,0.38,0.31,0.91,0.54,1.36
		c0.34,0.7,0.85,1.41,1.31,2.19c0.45,0.75,1.27,1.98,1.73,2.69c1.38,1.91,2.45,4.49,3.7,5.19c0.58,0.32,1.56,0.44,1.93,0.41
		c0.31-0.07,0.71-0.39,1.12-0.55c0.38-0.15,0.73-0.16,1.04-0.35c1.07-0.56,2.11-1.58,3.2-2.31c0.63-0.46,1.38-0.71,1.87-1.12
		c0.13-0.12,0.1-0.29,0.18-0.42c0.5-0.73,1.12-1.14,1-1.86c-0.03-0.25-0.23-0.45-0.26-0.7c-0.11-0.44-0.06-0.95-0.24-1.31
		c-0.17-0.41-0.55-0.85-0.81-1.35c-0.79-0.47-1.38-0.86-2.25-0.49c-0.55,0.25-0.98,0.78-1.55,1.2c-1.19,0.95-1.98,1.46-2.86,1.17
		c-0.91-0.28-0.93-0.97-1.7-2.12c0.14-0.55,0-0.98,0.38-1.52c0.53-0.75,1.83-1.13,2.03-2.04c-0.05-0.67-0.63-1.58-1.13-2.34
		c-0.6-0.93-0.96-1.46-1.73-1.51c-1.33,0.52-2.7,1.9-3.69,1.23c-0.4-0.27-0.71-0.87-0.95-1.59c0.28-1.03,1.64-1.45,2.7-2.17
		c0.42-0.29,0.91-0.7,1.3-1.09c0.79-0.71,1.22-1.04,1.03-1.87c-0.18-0.76-0.73-1.87-1.18-2.43c-1.11-1.33-2.44-1-3.91,0.34
		c0,0-0.15,0.01-0.18,0.03C60.25,28.64,60.14,28.71,59.96,28.74 M45.1,39.13c-0.68,0.11-1.23,0.72-1.96,1.26
		c-0.7,0.47-1.46,1.03-2.27,1.63c-1.47,1.12-2.95,2.34-4.29,3.41c-0.63,0.5-1.32,0.83-1.8,1.3c-0.16,0.12-0.34,0.49-0.51,0.71
		c-0.22,0.26-0.56,0.49-0.68,0.71c-0.37,0.56-0.4,1.39-0.3,1.78c0,0.05-0.14,0.2-0.12,0.23c0.18,0.76,0.9,1.56,1.57,2.19
		c0.65,0.6,1.41,1.28,2.1,1.29c0.1,0.01,0.66-0.14,0.91-0.25c0.33-0.13,0.66-0.31,0.91-0.42c0.7-0.3,1.29-0.86,1.92-0.71
		c0.16,0.04,0.44,0.29,0.71,0.51c1.86,1.48,3.38,3.76,4.81,5.67c2.07,2.65,3.81,4.96,5.83,6.14c1.01-0.08,2.65-0.82,3.27-2
		c-0.26-1.08-0.36-2.07-1.13-3.14c-1.05-1.53-2.56-3.38-3.87-4.87c-0.44-0.5-0.97-0.9-1.4-1.38c-0.4-0.5-0.69-1.08-1.11-1.61
		c-0.46-0.58-0.94-1.18-1.38-1.74c-0.75-0.95-1.76-1.99-1.29-3.18c1.16-0.92,2.42-1.54,3.01-2.7c-0.02-0.84-0.35-2-0.83-2.77
		C46.68,40.31,45.88,39.63,45.1,39.13"/>
</g>
</svg>
