<?xml version="1.0" encoding="utf-8"?>
<!-- Generator: Adobe Illustrator 26.3.1, SVG Export Plug-In . SVG Version: 6.00 Build 0)  -->
<svg version="1.1" id="Layer_1" xmlns="http://www.w3.org/2000/svg" xmlns:xlink="http://www.w3.org/1999/xlink" x="0px" y="0px"
	 viewBox="0 0 527.02 96.17" style="enable-background:new 0 0 527.02 96.17;" xml:space="preserve">
<style type="text/css">
	.st0{fill:#FFFFFF;}
</style>
<g>
	<g>
		<path class="st0" d="M67.78,82.04h-4.12l3.45-14.76h-5.96l0.74-3.17h16.04l-0.74,3.17h-5.96L67.78,82.04z"/>
		<path class="st0" d="M85.99,78.15c-1.76,3.2-4.92,4.24-7.42,4.24c-4.12,0-6.85-1.8-5.58-7.26c0.38-1.6,2.17-6.72,8.57-6.72
			c2.88,0,6.58,1.25,5.16,7.31l-0.14,0.62H76.55c-0.12,1-0.43,3.25,2.68,3.25c1.07,0,2.29-0.5,2.81-1.45H85.99z M83.15,74.08
			c0.28-2.15-1.08-2.8-2.31-2.8c-1.81,0-3.02,1.05-3.65,2.8H83.15z"/>
		<path class="st0" d="M100.27,82.04h-4.75l-1.59-3.99l-3.46,3.99h-4.64l6.55-6.77l-3.25-6.52h4.67l1.57,3.87l3.32-3.87h4.53
			l-6.33,6.52L100.27,82.04z"/>
		<path class="st0" d="M114.85,79.45c-0.37,1.57-0.07,1.92,0.37,2.07l-0.12,0.52h-4.15c-0.07-0.62-0.08-0.82,0.01-1.57
			c-1.07,0.82-2.56,1.92-5.17,1.92c-2.2,0-4.19-1.12-3.55-3.87c0.61-2.6,2.73-3.92,5.25-4.24l3.57-0.47
			c0.62-0.08,1.42-0.3,1.59-1.05c0.35-1.47-1.18-1.55-2.16-1.55c-1.92,0-2.5,1.07-2.79,1.85h-3.71c1.39-4.07,4.63-4.64,7.62-4.64
			c2.06,0,5.69,0.57,4.92,3.85L114.85,79.45z M112,75.58c-0.45,0.28-1.13,0.5-2.78,0.72c-1.48,0.23-2.74,0.55-3.07,2
			c-0.29,1.22,0.67,1.6,1.41,1.6c1.7,0,3.67-1,4.05-2.62L112,75.58z"/>
		<path class="st0" d="M128.05,72.81c0.03-0.85-0.08-1.75-2.17-1.75c-2.09,0-2.53,0.72-2.66,1.3c-0.49,2.1,9.01,0.57,7.87,5.47
			c-0.91,3.87-5.19,4.57-7.47,4.57c-3.32,0-6.67-1.05-5.96-4.59h3.95c-0.26,1.12,0.31,1.95,2.73,1.95c1.97,0,2.65-0.87,2.76-1.37
			c0.52-2.22-8.93-0.55-7.77-5.52c0.46-1.95,2.38-4.44,6.95-4.44c2.86,0,6.11,0.65,5.54,4.39H128.05z"/>
		<path class="st0" d="M144.91,64.12h8.71c6.65,0,6.82,5.14,6.03,8.54c-0.9,3.85-3.87,9.39-10.38,9.39h-8.54L144.91,64.12z
			 M145.48,78.95h4.01c3.35,0,5.2-3.07,5.88-6.02c1.23-5.29-1.44-5.72-3.2-5.72h-3.96L145.48,78.95z"/>
		<path class="st0" d="M173.65,78.15c-1.76,3.2-4.92,4.24-7.42,4.24c-4.12,0-6.86-1.8-5.58-7.26c0.37-1.6,2.17-6.72,8.57-6.72
			c2.88,0,6.57,1.25,5.15,7.31l-0.15,0.62h-10.03c-0.12,1-0.43,3.25,2.68,3.25c1.07,0,2.29-0.5,2.81-1.45H173.65z M170.81,74.08
			c0.29-2.15-1.08-2.8-2.31-2.8c-1.81,0-3.02,1.05-3.65,2.8H170.81z"/>
		<path class="st0" d="M181.66,70.69h0.05c0.96-1.05,2.32-2.27,4.9-2.27c3.21,0,5.54,2.25,4.47,6.84c-0.85,3.64-3.48,7.14-7.82,7.14
			c-2.69,0-3.34-1.32-3.64-2.05h-0.06l-1.6,6.87h-3.85l4.31-18.45h3.68L181.66,70.69z M182.97,79.52c2.47,0,3.73-2.44,4.1-4.02
			c0.49-2.1,0.13-4.07-2.32-4.07c-2.63,0-3.77,2.15-4.27,4.27C180.02,77.68,180.52,79.52,182.97,79.52z"/>
		<path class="st0" d="M204.57,79.45c-0.37,1.57-0.07,1.92,0.37,2.07l-0.12,0.52h-4.15c-0.07-0.62-0.08-0.82,0.01-1.57
			c-1.07,0.82-2.56,1.92-5.17,1.92c-2.2,0-4.19-1.12-3.54-3.87c0.61-2.6,2.73-3.92,5.25-4.24l3.57-0.47
			c0.62-0.08,1.42-0.3,1.59-1.05c0.35-1.47-1.18-1.55-2.17-1.55c-1.92,0-2.5,1.07-2.79,1.85h-3.71c1.39-4.07,4.63-4.64,7.62-4.64
			c2.06,0,5.69,0.57,4.93,3.85L204.57,79.45z M201.71,75.58c-0.45,0.28-1.13,0.5-2.78,0.72c-1.48,0.23-2.73,0.55-3.07,2
			c-0.29,1.22,0.67,1.6,1.41,1.6c1.7,0,3.67-1,4.04-2.62L201.71,75.58z"/>
		<path class="st0" d="M210.42,68.76h3.68l-0.54,2.3h0.05c1.11-1.35,2.29-2.65,4.63-2.65c0.25,0,0.49,0.02,0.73,0.05l-0.83,3.55
			c-0.32-0.05-0.73-0.05-1.09-0.05c-2.99,0-3.94,1.7-4.28,3.17l-1.62,6.92h-3.84L210.42,68.76z"/>
		<path class="st0" d="M225.94,68.76h2.39l-0.58,2.5h-2.39l-1.69,7.21c-0.18,0.77-0.22,1.07,1.34,1.07c0.25,0,0.53-0.03,0.81-0.05
			l-0.62,2.65c-0.61,0.02-1.22,0.05-1.82,0.05h-0.49c-3.32,0-3.66-1.15-3.26-2.87l1.89-8.06h-1.98l0.58-2.5h1.98l0.84-3.6h3.84
			L225.94,68.76z"/>
		<path class="st0" d="M248.51,82.04h-3.84l1.89-8.06c0.46-1.97-0.35-2.62-1.48-2.62c-1.92,0-2.88,1.15-3.24,2.72l-1.86,7.96h-3.85
			l1.87-7.99c0.26-1.12,0.63-2.7-1.68-2.7c-1.81,0-2.66,1.15-2.99,2.6l-1.89,8.09h-3.84l3.11-13.28h3.68l-0.46,1.95h0.05
			c0.7-0.87,2.1-2.3,4.68-2.3c2.11,0,2.91,0.7,3.57,2.12c0.64-0.65,2.06-2.12,4.4-2.12c2.85,0,4.72,1.52,4.04,4.44L248.51,82.04z"/>
		<path class="st0" d="M265.43,78.15c-1.76,3.2-4.92,4.24-7.42,4.24c-4.12,0-6.86-1.8-5.58-7.26c0.37-1.6,2.18-6.72,8.57-6.72
			c2.88,0,6.57,1.25,5.15,7.31l-0.14,0.62h-10.03c-0.12,1-0.43,3.25,2.68,3.25c1.07,0,2.29-0.5,2.81-1.45H265.43z M262.59,74.08
			c0.28-2.15-1.08-2.8-2.31-2.8c-1.81,0-3.02,1.05-3.65,2.8H262.59z"/>
		<path class="st0" d="M280.39,82.04h-3.84l1.89-8.06c0.23-0.97,0.55-2.62-1.89-2.62c-1.7,0-3.27,1.05-3.74,3.07l-1.78,7.62h-3.84
			l3.11-13.28h3.68l-0.46,1.95h0.05c0.71-0.8,2.16-2.3,4.93-2.3c2.86,0,4.72,1.52,4.04,4.44L280.39,82.04z"/>
		<path class="st0" d="M290.77,68.76h2.39l-0.58,2.5h-2.39l-1.69,7.21c-0.18,0.77-0.22,1.07,1.34,1.07c0.25,0,0.53-0.03,0.81-0.05
			l-0.62,2.65c-0.61,0.02-1.22,0.05-1.82,0.05h-0.49c-3.32,0-3.66-1.15-3.26-2.87l1.89-8.06h-1.98l0.58-2.5h1.98l0.84-3.6h3.84
			L290.77,68.76z"/>
		<path class="st0" d="M306.57,82.39c-3.93,0-6.96-2.2-5.84-6.99c1.12-4.79,5.18-6.99,9.1-6.99c3.93,0,6.96,2.2,5.83,6.99
			C314.55,80.2,310.49,82.39,306.57,82.39z M309.14,71.36c-2.96,0-4.06,2.35-4.46,4.05c-0.4,1.7-0.4,4.04,2.57,4.04
			c2.97,0,4.07-2.35,4.46-4.04C312.11,73.7,312.11,71.36,309.14,71.36z"/>
		<path class="st0" d="M321.2,82.04h-3.84l2.52-10.79h-2.11l0.58-2.5h2.12l0.25-1.07c0.64-2.75,2.54-3.79,5.17-3.79
			c1.13,0,1.64,0.03,1.96,0.05l-0.66,2.82h-1.07c-1.32,0-1.43,0.37-1.69,1.47l-0.12,0.52h2.5l-0.58,2.5h-2.5L321.2,82.04z"/>
		<path class="st0" d="M342.1,82.04h-4.12l3.45-14.76h-5.96l0.74-3.17h16.04l-0.74,3.17h-5.96L342.1,82.04z"/>
		<path class="st0" d="M350.48,68.76h3.68l-0.54,2.3h0.05c1.11-1.35,2.29-2.65,4.63-2.65c0.25,0,0.49,0.02,0.73,0.05l-0.83,3.55
			c-0.32-0.05-0.73-0.05-1.09-0.05c-2.99,0-3.94,1.7-4.29,3.17l-1.62,6.92h-3.85L350.48,68.76z"/>
		<path class="st0" d="M370.47,79.45c-0.37,1.57-0.06,1.92,0.37,2.07l-0.12,0.52h-4.15c-0.07-0.62-0.08-0.82,0.01-1.57
			c-1.07,0.82-2.56,1.92-5.17,1.92c-2.2,0-4.19-1.12-3.54-3.87c0.61-2.6,2.73-3.92,5.25-4.24l3.57-0.47
			c0.62-0.08,1.42-0.3,1.59-1.05c0.35-1.47-1.17-1.55-2.16-1.55c-1.92,0-2.5,1.07-2.79,1.85h-3.71c1.39-4.07,4.63-4.64,7.62-4.64
			c2.06,0,5.69,0.57,4.92,3.85L370.47,79.45z M367.61,75.58c-0.45,0.28-1.13,0.5-2.78,0.72c-1.48,0.23-2.74,0.55-3.08,2
			c-0.29,1.22,0.67,1.6,1.41,1.6c1.7,0,3.67-1,4.04-2.62L367.61,75.58z"/>
		<path class="st0" d="M386.45,82.04h-3.84l1.88-8.06c0.23-0.97,0.56-2.62-1.88-2.62c-1.7,0-3.27,1.05-3.74,3.07l-1.78,7.62h-3.84
			l3.11-13.28h3.68l-0.45,1.95h0.05c0.71-0.8,2.16-2.3,4.93-2.3c2.86,0,4.72,1.52,4.04,4.44L386.45,82.04z"/>
		<path class="st0" d="M399.84,72.81c0.04-0.85-0.08-1.75-2.17-1.75c-2.09,0-2.53,0.72-2.66,1.3c-0.49,2.1,9.01,0.57,7.87,5.47
			c-0.9,3.87-5.19,4.57-7.47,4.57c-3.32,0-6.68-1.05-5.96-4.59h3.95c-0.26,1.12,0.31,1.95,2.73,1.95c1.98,0,2.65-0.87,2.76-1.37
			c0.52-2.22-8.94-0.55-7.77-5.52c0.46-1.95,2.39-4.44,6.94-4.44c2.86,0,6.11,0.65,5.54,4.39H399.84z"/>
		<path class="st0" d="M410.89,70.69h0.05c0.96-1.05,2.31-2.27,4.9-2.27c3.21,0,5.54,2.25,4.47,6.84c-0.85,3.64-3.48,7.14-7.82,7.14
			c-2.69,0-3.34-1.32-3.64-2.05h-0.05l-1.61,6.87h-3.84l4.31-18.45h3.68L410.89,70.69z M412.2,79.52c2.47,0,3.73-2.44,4.1-4.02
			c0.49-2.1,0.12-4.07-2.32-4.07c-2.64,0-3.77,2.15-4.27,4.27C409.25,77.68,409.75,79.52,412.2,79.52z"/>
		<path class="st0" d="M427.89,82.39c-3.93,0-6.95-2.2-5.83-6.99c1.12-4.79,5.18-6.99,9.1-6.99c3.93,0,6.96,2.2,5.83,6.99
			C435.88,80.2,431.82,82.39,427.89,82.39z M430.47,71.36c-2.97,0-4.06,2.35-4.46,4.05c-0.4,1.7-0.4,4.04,2.57,4.04
			c2.97,0,4.06-2.35,4.46-4.04C433.44,73.7,433.44,71.36,430.47,71.36z"/>
		<path class="st0" d="M440.61,68.76h3.68l-0.54,2.3h0.05c1.11-1.35,2.29-2.65,4.62-2.65c0.25,0,0.49,0.02,0.73,0.05l-0.83,3.55
			c-0.32-0.05-0.73-0.05-1.09-0.05c-2.99,0-3.94,1.7-4.29,3.17l-1.62,6.92h-3.85L440.61,68.76z"/>
		<path class="st0" d="M456.12,68.76h2.39l-0.58,2.5h-2.39l-1.69,7.21c-0.18,0.77-0.22,1.07,1.34,1.07c0.25,0,0.53-0.03,0.81-0.05
			l-0.62,2.65c-0.61,0.02-1.22,0.05-1.82,0.05h-0.49c-3.32,0-3.66-1.15-3.25-2.87l1.88-8.06h-1.98l0.58-2.5h1.98l0.84-3.6h3.84
			L456.12,68.76z"/>
		<path class="st0" d="M470.25,79.45c-0.37,1.57-0.07,1.92,0.36,2.07l-0.12,0.52h-4.14c-0.07-0.62-0.08-0.82,0.01-1.57
			c-1.07,0.82-2.56,1.92-5.17,1.92c-2.2,0-4.19-1.12-3.54-3.87c0.61-2.6,2.73-3.92,5.25-4.24l3.57-0.47
			c0.62-0.08,1.42-0.3,1.59-1.05c0.34-1.47-1.18-1.55-2.16-1.55c-1.92,0-2.5,1.07-2.79,1.85h-3.71c1.39-4.07,4.63-4.64,7.62-4.64
			c2.06,0,5.69,0.57,4.92,3.85L470.25,79.45z M467.38,75.58c-0.45,0.28-1.13,0.5-2.78,0.72c-1.48,0.23-2.74,0.55-3.08,2
			c-0.29,1.22,0.67,1.6,1.41,1.6c1.7,0,3.66-1,4.04-2.62L467.38,75.58z"/>
		<path class="st0" d="M480.43,68.76h2.39l-0.58,2.5h-2.39l-1.69,7.21c-0.18,0.77-0.22,1.07,1.34,1.07c0.25,0,0.53-0.03,0.81-0.05
			l-0.62,2.65c-0.61,0.02-1.22,0.05-1.82,0.05h-0.49c-3.33,0-3.66-1.15-3.26-2.87l1.88-8.06h-1.98l0.58-2.5h1.98l0.84-3.6h3.85
			L480.43,68.76z"/>
		<path class="st0" d="M489.16,68.76l-3.11,13.28h-3.84l3.11-13.28H489.16z M489.53,67.19h-3.85l0.76-3.25h3.84L489.53,67.19z"/>
		<path class="st0" d="M496.22,82.39c-3.93,0-6.95-2.2-5.83-6.99c1.12-4.79,5.18-6.99,9.11-6.99c3.93,0,6.95,2.2,5.83,6.99
			C504.2,80.2,500.15,82.39,496.22,82.39z M498.8,71.36c-2.96,0-4.06,2.35-4.46,4.05c-0.4,1.7-0.4,4.04,2.57,4.04
			c2.97,0,4.07-2.35,4.46-4.04C501.77,73.7,501.77,71.36,498.8,71.36z"/>
		<path class="st0" d="M519.07,82.04h-3.85l1.89-8.06c0.23-0.97,0.56-2.62-1.89-2.62c-1.7,0-3.27,1.05-3.74,3.07l-1.78,7.62h-3.85
			l3.11-13.28h3.68l-0.46,1.95h0.06c0.71-0.8,2.16-2.3,4.93-2.3c2.86,0,4.72,1.52,4.04,4.44L519.07,82.04z"/>
	</g>
	<g>
		<polygon class="st0" points="31.94,49.61 56.21,49.61 28.13,92.31 3.86,92.31 31.94,49.61 		"/>
		<g>
			<path class="st0" d="M129.58,19.81c-0.83,0.81-1.83,1.21-3,1.21c-1.21,0-2.22-0.41-3.05-1.24c-0.83-0.83-1.24-1.84-1.24-3.05
				c0-1.25,0.45-2.29,1.34-3.12c0.84-0.78,1.82-1.16,2.95-1.16c1.18,0,2.19,0.42,3.03,1.26c0.84,0.84,1.25,1.85,1.25,3.03
				C130.86,17.95,130.44,18.98,129.58,19.81z M124.06,14.25c-0.68,0.7-1.02,1.53-1.02,2.48c0,0.99,0.34,1.84,1.04,2.53
				c0.69,0.7,1.52,1.04,2.5,1.04c0.97,0,1.8-0.35,2.5-1.05c0.69-0.7,1.04-1.54,1.04-2.52c0-0.96-0.34-1.78-1.03-2.48
				c-0.69-0.71-1.53-1.07-2.5-1.07C125.59,13.18,124.75,13.53,124.06,14.25z M124.7,19.12v-4.75c0.29,0,0.74,0,1.32,0
				c0.59,0,0.91,0,0.98,0.01c0.38,0.03,0.69,0.11,0.94,0.24c0.42,0.23,0.63,0.61,0.63,1.13c0,0.4-0.11,0.69-0.34,0.86
				c-0.22,0.18-0.5,0.29-0.82,0.32c0.3,0.06,0.53,0.15,0.68,0.27c0.28,0.23,0.42,0.58,0.42,1.07v0.42c0,0.04,0,0.09,0.01,0.14
				c0.01,0.05,0.02,0.09,0.04,0.14l0.04,0.13h-1.19c-0.04-0.15-0.07-0.37-0.08-0.66c-0.01-0.29-0.04-0.48-0.08-0.58
				c-0.06-0.17-0.18-0.28-0.35-0.35c-0.09-0.04-0.24-0.07-0.43-0.08l-0.27-0.02h-0.26v1.68H124.7z M126.97,15.3
				c-0.17-0.06-0.41-0.1-0.72-0.1h-0.3v1.38h0.48c0.29,0,0.52-0.06,0.68-0.18c0.16-0.12,0.24-0.3,0.24-0.56
				C127.35,15.58,127.22,15.4,126.97,15.3z"/>
		</g>
		<polygon class="st0" points="8.29,41.7 73.21,41.97 73.69,41.26 8.54,41.36 		"/>
		<polygon class="st0" points="7.03,43.46 72,43.74 72.46,43.06 7.26,43.14 		"/>
		<polygon class="st0" points="6.05,44.83 5.82,45.16 70.78,45.53 71.26,44.82 		"/>
		<polygon class="st0" points="73.23,23.4 72.43,22.69 21.83,22.79 21.59,23.13 		"/>
		<polygon class="st0" points="20.33,24.89 75.21,25.17 74.45,24.49 20.56,24.57 		"/>
		<polygon class="st0" points="19.11,26.59 77.22,26.96 76.42,26.25 19.35,26.27 		"/>
		<polygon class="st0" points="14.68,32.78 79.23,33.15 79.69,32.47 14.91,32.46 		"/>
		<polygon class="st0" points="17.09,29.41 80.16,29.59 79.37,28.88 17.34,29.07 		"/>
		<polygon class="st0" points="15.89,31.08 80.45,31.36 80.91,30.68 16.13,30.76 		"/>
		<polygon class="st0" points="12.73,35.51 77.45,35.75 77.92,35.07 12.97,35.17 		"/>
		<polygon class="st0" points="11.47,37.27 76.23,37.54 76.69,36.86 11.7,36.94 		"/>
		<polygon class="st0" points="10.25,38.97 75,39.34 75.49,38.63 10.48,38.64 		"/>
		<polygon class="st0" points="70.15,20.66 87.27,20.66 99.64,3.47 99.64,20.66 118.66,20.66 100.59,30.42 100.59,47.14 88.7,36.92 
			69.68,47.14 81.09,30.42 70.15,20.66 		"/>
	</g>
</g>
</svg>
