<?xml version="1.0" encoding="utf-8"?>
<!-- Generator: Adobe Illustrator 24.1.0, SVG Export Plug-In . SVG Version: 6.00 Build 0)  -->
<svg version="1.1" id="Layer_1" xmlns="http://www.w3.org/2000/svg" xmlns:xlink="http://www.w3.org/1999/xlink" x="0px" y="0px"
	 viewBox="0 0 512 512" style="enable-background:new 0 0 512 512;" xml:space="preserve">
<style type="text/css">
	.st0{fill:#BCBEC0;}
</style>
<g>
	<path class="st0" d="M253.9,11.5l0.6,86.1l14.2,8.2h8.2l1.6-2.2l8.7,9.3l20.7,3.3l3.3,4.9l14.7-4.9l7.1,10.9l9.3-4.4l8.7,7.6
		l8.7-5.5l2.2,8.7l8.2-10.4l5.5,3.8l5.4-2.2l12,7.1l14.7-8.7l4.9,1.6l7.6-3.3l8.2,1.6l4.4-4.9l32.7,16.9l13.1-1.6l4.4,70.3l9.3,8.2
		v9.3l15.3,23.5l-8.2,21.3l3.3,22.3l-8.2,10.9l3.3,6l-7.6,2.2l-26.2,16.9l1.6-6.5l9.8-3.8V313l-14.2,2.7l2.2-10.4l-4.9,3.8l-6.5-1.6
		l5.5,13.6l3.8,3.3l-10.9,7.1v5.5l-9.8,9.8l-20.2,9.8v0.6l8.2-2.7l-19.1,12l8.7-9.3l-8.7,3.8l3.3-2.2l-2.2-2.2l-7.1,2.2l-1.6-3.8
		l-1.6-0.5l2.2,4.4l-0.5,2.2l-2.7,2.7l1.1-4.9l-7.1-2.2l6,8.7l-2.7,3.3l5.5,0.6l-8.7,4.9l-5.5-5.5l0.6,9.3l-4.9,4.9l-2.2,1.1
		l1.6-7.6l-1.6,7.6l-2.2-4.9l-6.5,3.8l1.6,6.5l4.9-4.9l-6.5,12.5l-13.6-1.6L370,404l-7.1,17.4l-4.4,1.6l2.2-6.5l-4.9,5.5l-6-7.6
		l4.9,7.6l-4.9,1.1h13.1l-4.4,12l3.3,4.4l-3.3,3.3l11.5,31.6l4.9,0.5l-1.1,3.8l1.6-1.6l2.2,2.7l-7.6,3.8l-1.1,4.9l-12.5-9.8
		l-21.3-1.1l-26.7-12l-10.9-1.1l-5.4-18l-9.8-11.5l-2.7-24.5l-13.1-6.5l-9.8-16.4l-8.2-8.2l-15.8-37.6l-21.8-20.7l-4.4,1.1l-3.8-9.3
		l-28.3-1.6l-6.5-2.7l-3.3,4.4l-10.9,1.1l-6.5,22.9l-11.5,12.5l-9.3-2.2l-42-28.3l-18-45.3L50,263.4L5.9,215.9l-2.2-7.6l135.7,5.5
		l6-202.3H253.9z M364,442.7l-1.1-14.2l1.1-1.1l1.6-0.5l9.8,48L364,442.7z M370,412.2l-6,13.6l6-19.1l7.6-11.5l-5.5,11.5L370,412.2z
		 M382.6,384.4l1.6-0.6v3.8l-5.5,7.6L382.6,384.4z M389.6,379.5l-5.4,6l3.8-6l13.6-6L389.6,379.5z M406,368.6l3.3-2.2l-6,2.7
		L406,368.6z M463.8,324.4l-12,11.5l9.3-9.8v-1.6H463.8z"/>
</g>
</svg>
