<?xml version="1.0" encoding="utf-8"?>
<!-- Generator: Adobe Illustrator 24.1.0, SVG Export Plug-In . SVG Version: 6.00 Build 0)  -->
<svg version="1.1" id="Layer_1" xmlns="http://www.w3.org/2000/svg" xmlns:xlink="http://www.w3.org/1999/xlink" x="0px" y="0px"
	 viewBox="0 0 432 122.1" style="enable-background:new 0 0 432 122.1;" xml:space="preserve">
<style type="text/css">
	.st0{fill:#FFFFFF;}
</style>
<g>
	<path class="st0" d="M372.1,114.8c0-2.8-1.2-4.8-5.3-6.5c-2.7-1.2-3.8-1.7-3.8-3.1c0-0.9,0.7-1.8,2.6-1.8c1.7,0.2,3.4,0.8,4.8,1.8
		l1.3-4.6c-1.8-1.1-3.9-1.7-6.1-1.7c-5.1,0-7.6,3.1-7.6,6.3c0,2.6,1.3,4.9,5.2,6.4c3.3,1.3,3.9,2.1,3.9,3.3s-0.7,1.9-2.5,1.9
		c-2.2-0.1-4.3-0.8-6.1-2.1l-1.4,4.6c2.2,1.4,4.7,2.2,7.3,2.2C369.6,121.6,372.1,118.3,372.1,114.8 M333.8,99.5h-5.9l-4.4,7.9
		l-4.5-7.9h-5.9l7.9,12.8v8.9h4.9v-8.9L333.8,99.5z M284.1,113.2h-4.9l2.5-4.9L284.1,113.2z M292.4,121.1l-10.3-21.7h-1l-10.3,21.7
		h5.4l2-3.9h6.8l1.9,3.9H292.4z M249.6,99.5h-5.9l-3.4,11.3L234.8,99h-1l-5.4,11.8L225,99.5h-6l7.9,22.7h1l6.4-13.8l6.4,13.8h1
		L249.6,99.5z M137.8,108.3v4.9h4.8v3.2c-1,0.5-2.1,0.7-3.2,0.6c-3.6,0-6.4-2.6-6.4-6.8c0-3.9,2.3-6.6,6.6-6.6
		c1.7,0,3.4,0.4,4.9,1.2l2.1-4.1c-2.2-1.2-4.7-1.9-7.3-1.9c-6.6,0-11.7,4.6-11.7,11.3c-0.2,6.1,4.7,11.2,10.8,11.3
		c0.2,0,0.4,0,0.6,0c3,0,6-0.9,8.6-2.5v-10.9H137.8z M100.3,99.5h-4.9v21.7h4.9L100.3,99.5z M66.8,121.1V99.5h-4.9v7.9H53v-7.9h-4.9
		v21.7H53v-8.9h8.9v8.9H66.8z M192.9,121.1V99.5H188v7.9h-8.9v-7.9h-4.9v21.7h4.9v-8.9h8.9v8.9H192.9z"/>
	<path class="st0" d="M417.2,60.3c0-10.7-4.7-18.2-20.4-24.8C386.2,31,382,29.2,382,23.7c0-3.4,2.9-6.7,10-6.7
		c6,0,13.8,3.5,18.6,6.8l4.9-17.3C410.6,3.2,401.2,0,392,0c-19.6,0-29.6,11.9-29.6,24c0,10,5.2,18.6,20,24.5
		c12.9,5.1,15,8.1,15,12.4c0,4.1-2.6,7.3-9.5,7.3c-7.9,0-16.8-3.2-23.5-8.1L359,77.7c7.3,4.8,18.8,8.6,28.3,8.6
		C407.5,86.2,417.2,73.6,417.2,60.3 M310.5,55.4h-16.3l8.2-20L310.5,55.4z M343.2,85.4l-39-84.5h-2.7l-39.8,84.4h19.9l6.3-15.4h29
		l6.3,15.4L343.2,85.4z M249.2,85.4l-27.6-43.2l27.6-41.3h-22.8l-17.1,27.9l-17-27.9h-23.3l27.7,43.2l-27.7,41.2h22.9L209,57.6
		l16.9,27.8L249.2,85.4z M148,85.3V67.2h-33.7V50.8h30.9V33.6h-30.9V19.1H148V0.9H94.4v84.4H148z M69.9,19.1V0.9H0v18.1h25.4v66.3
		h19.1V19.1H69.9z"/>
</g>
<path class="st0" d="M423.1,3.1V1.6h-5.8v1.5h2.1v5.5h1.6V3.1H423.1z M432,8.7l-0.3-7.1h-0.2l-3.1,4l-3.2-4H425l-0.3,7.1h1.6
	l0.1-3.4l2,2.5h0.2l1.9-2.5l0.1,3.4H432z"/>
</svg>
